<?xml version="1.0" encoding="utf-8" standalone="no"?>
<!DOCTYPE svg PUBLIC "-//W3C//DTD SVG 1.1//EN"
  "http://www.w3.org/Graphics/SVG/1.1/DTD/svg11.dtd">
<svg xmlns:xlink="http://www.w3.org/1999/xlink" width="720pt" height="432pt" viewBox="0 0 720 432" xmlns="http://www.w3.org/2000/svg" version="1.1">
 <metadata>
  <rdf:RDF xmlns:dc="http://purl.org/dc/elements/1.1/" xmlns:cc="http://creativecommons.org/ns#" xmlns:rdf="http://www.w3.org/1999/02/22-rdf-syntax-ns#">
   <cc:Work>
    <dc:type rdf:resource="http://purl.org/dc/dcmitype/StillImage"/>
    <dc:date>2024-04-26T15:16:56.651980</dc:date>
    <dc:format>image/svg+xml</dc:format>
    <dc:creator>
     <cc:Agent>
      <dc:title>Matplotlib v3.8.1, https://matplotlib.org/</dc:title>
     </cc:Agent>
    </dc:creator>
   </cc:Work>
  </rdf:RDF>
 </metadata>
 <defs>
  <style type="text/css">*{stroke-linejoin: round; stroke-linecap: butt}</style>
 </defs>
 <g id="figure_1">
  <g id="patch_1">
   <path d="M 0 432 
L 720 432 
L 720 0 
L 0 0 
z
" style="fill: #ffffff"/>
  </g>
  <g id="axes_1">
   <g id="patch_2">
    <path d="M 103.154375 183.6 
L 399.027188 183.6 
L 399.027188 26.88 
L 103.154375 26.88 
z
" style="fill: #ffffff"/>
   </g>
   <g id="QuadMesh_1">
    <path d="M 103.154375 26.88 
L 177.122578 26.88 
L 177.122578 66.06 
L 103.154375 66.06 
L 103.154375 26.88 
" clip-path="url(#p0196e8b064)" style="fill: #125ea6; stroke: #ffffff"/>
    <path d="M 177.122578 26.88 
L 251.090781 26.88 
L 251.090781 66.06 
L 177.122578 66.06 
L 177.122578 26.88 
" clip-path="url(#p0196e8b064)" style="fill: #e0ecf8; stroke: #ffffff"/>
    <path d="M 251.090781 26.88 
L 325.058984 26.88 
L 325.058984 66.06 
L 251.090781 66.06 
L 251.090781 26.88 
" clip-path="url(#p0196e8b064)" style="fill: #f5f9fe; stroke: #ffffff"/>
    <path d="M 325.058984 26.88 
L 399.027188 26.88 
L 399.027188 66.06 
L 325.058984 66.06 
L 325.058984 26.88 
" clip-path="url(#p0196e8b064)" style="fill: #eef5fc; stroke: #ffffff"/>
    <path d="M 103.154375 66.06 
L 177.122578 66.06 
L 177.122578 105.24 
L 103.154375 105.24 
L 103.154375 66.06 
" clip-path="url(#p0196e8b064)" style="fill: #dce9f6; stroke: #ffffff"/>
    <path d="M 177.122578 66.06 
L 251.090781 66.06 
L 251.090781 105.24 
L 177.122578 105.24 
L 177.122578 66.06 
" clip-path="url(#p0196e8b064)" style="fill: #1764ab; stroke: #ffffff"/>
    <path d="M 251.090781 66.06 
L 325.058984 66.06 
L 325.058984 105.24 
L 251.090781 105.24 
L 251.090781 66.06 
" clip-path="url(#p0196e8b064)" style="fill: #eef5fc; stroke: #ffffff"/>
    <path d="M 325.058984 66.06 
L 399.027188 66.06 
L 399.027188 105.24 
L 325.058984 105.24 
L 325.058984 66.06 
" clip-path="url(#p0196e8b064)" style="fill: #f5f9fe; stroke: #ffffff"/>
    <path d="M 103.154375 105.24 
L 177.122578 105.24 
L 177.122578 144.42 
L 103.154375 144.42 
L 103.154375 105.24 
" clip-path="url(#p0196e8b064)" style="fill: #f7fbff; stroke: #ffffff"/>
    <path d="M 177.122578 105.24 
L 251.090781 105.24 
L 251.090781 144.42 
L 177.122578 144.42 
L 177.122578 105.24 
" clip-path="url(#p0196e8b064)" style="fill: #f7fbff; stroke: #ffffff"/>
    <path d="M 251.090781 105.24 
L 325.058984 105.24 
L 325.058984 144.42 
L 251.090781 144.42 
L 251.090781 105.24 
" clip-path="url(#p0196e8b064)" style="fill: #084f99; stroke: #ffffff"/>
    <path d="M 325.058984 105.24 
L 399.027188 105.24 
L 399.027188 144.42 
L 325.058984 144.42 
L 325.058984 105.24 
" clip-path="url(#p0196e8b064)" style="fill: #dfecf7; stroke: #ffffff"/>
    <path d="M 103.154375 144.42 
L 177.122578 144.42 
L 177.122578 183.6 
L 103.154375 183.6 
L 103.154375 144.42 
" clip-path="url(#p0196e8b064)" style="fill: #d0e1f2; stroke: #ffffff"/>
    <path d="M 177.122578 144.42 
L 251.090781 144.42 
L 251.090781 183.6 
L 177.122578 183.6 
L 177.122578 144.42 
" clip-path="url(#p0196e8b064)" style="fill: #e8f1fa; stroke: #ffffff"/>
    <path d="M 251.090781 144.42 
L 325.058984 144.42 
L 325.058984 183.6 
L 251.090781 183.6 
L 251.090781 144.42 
" clip-path="url(#p0196e8b064)" style="fill: #e9f2fa; stroke: #ffffff"/>
    <path d="M 325.058984 144.42 
L 399.027188 144.42 
L 399.027188 183.6 
L 325.058984 183.6 
L 325.058984 144.42 
" clip-path="url(#p0196e8b064)" style="fill: #3a8ac2; stroke: #ffffff"/>
   </g>
   <g id="matplotlib.axis_1">
    <g id="xtick_1">
     <g id="line2d_1">
      <defs>
       <path id="m6a356cfae8" d="M 0 0 
L 0 3.5 
" style="stroke: #000000; stroke-width: 0.8"/>
      </defs>
      <g>
       <use xlink:href="#m6a356cfae8" x="140.138477" y="183.6" style="stroke: #000000; stroke-width: 0.8"/>
      </g>
     </g>
     <g id="text_1">
      <!-- $\it{Ae. aegypti}$ -->
      <g transform="translate(112.238477 198.2) scale(0.1 -0.1)">
       <defs>
        <path id="DejaVuSans-Oblique-41" d="M 2356 4666 
L 3072 4666 
L 3938 0 
L 3278 0 
L 3084 1197 
L 984 1197 
L 325 0 
L -341 0 
L 2356 4666 
z
M 2584 4044 
L 1275 1722 
L 2988 1722 
L 2584 4044 
z
" transform="scale(0.015625)"/>
        <path id="DejaVuSans-Oblique-65" d="M 3078 2063 
Q 3088 2113 3092 2166 
Q 3097 2219 3097 2272 
Q 3097 2653 2873 2875 
Q 2650 3097 2266 3097 
Q 1838 3097 1509 2826 
Q 1181 2556 1013 2059 
L 3078 2063 
z
M 3578 1613 
L 903 1613 
Q 884 1494 878 1425 
Q 872 1356 872 1306 
Q 872 872 1139 634 
Q 1406 397 1894 397 
Q 2269 397 2603 481 
Q 2938 566 3225 728 
L 3116 159 
Q 2806 34 2476 -28 
Q 2147 -91 1806 -91 
Q 1078 -91 686 257 
Q 294 606 294 1247 
Q 294 1794 489 2264 
Q 684 2734 1063 3103 
Q 1306 3334 1642 3459 
Q 1978 3584 2356 3584 
Q 2950 3584 3301 3228 
Q 3653 2872 3653 2272 
Q 3653 2128 3634 1964 
Q 3616 1800 3578 1613 
z
" transform="scale(0.015625)"/>
        <path id="DejaVuSans-2e" d="M 684 794 
L 1344 794 
L 1344 0 
L 684 0 
L 684 794 
z
" transform="scale(0.015625)"/>
        <path id="DejaVuSans-Oblique-61" d="M 3438 1997 
L 3047 0 
L 2472 0 
L 2578 531 
Q 2325 219 2001 64 
Q 1678 -91 1281 -91 
Q 834 -91 548 182 
Q 263 456 263 884 
Q 263 1497 752 1853 
Q 1241 2209 2100 2209 
L 2900 2209 
L 2931 2363 
Q 2938 2388 2941 2417 
Q 2944 2447 2944 2509 
Q 2944 2788 2717 2942 
Q 2491 3097 2081 3097 
Q 1800 3097 1504 3025 
Q 1209 2953 897 2809 
L 997 3341 
Q 1322 3463 1633 3523 
Q 1944 3584 2234 3584 
Q 2853 3584 3176 3315 
Q 3500 3047 3500 2534 
Q 3500 2431 3484 2292 
Q 3469 2153 3438 1997 
z
M 2816 1759 
L 2241 1759 
Q 1534 1759 1195 1570 
Q 856 1381 856 984 
Q 856 709 1029 553 
Q 1203 397 1509 397 
Q 1978 397 2328 733 
Q 2678 1069 2791 1631 
L 2816 1759 
z
" transform="scale(0.015625)"/>
        <path id="DejaVuSans-Oblique-67" d="M 3816 3500 
L 3219 434 
Q 3047 -456 2561 -893 
Q 2075 -1331 1253 -1331 
Q 950 -1331 690 -1286 
Q 431 -1241 206 -1147 
L 313 -588 
Q 525 -725 762 -790 
Q 1000 -856 1269 -856 
Q 1816 -856 2167 -557 
Q 2519 -259 2631 300 
L 2681 563 
Q 2441 288 2122 144 
Q 1803 0 1434 0 
Q 903 0 598 351 
Q 294 703 294 1319 
Q 294 1803 478 2267 
Q 663 2731 997 3091 
Q 1219 3328 1514 3456 
Q 1809 3584 2131 3584 
Q 2484 3584 2746 3420 
Q 3009 3256 3138 2956 
L 3238 3500 
L 3816 3500 
z
M 2950 2216 
Q 2950 2641 2750 2872 
Q 2550 3103 2181 3103 
Q 1953 3103 1747 3012 
Q 1541 2922 1394 2759 
Q 1156 2491 1023 2127 
Q 891 1763 891 1375 
Q 891 944 1092 712 
Q 1294 481 1672 481 
Q 2219 481 2584 976 
Q 2950 1472 2950 2216 
z
" transform="scale(0.015625)"/>
        <path id="DejaVuSans-Oblique-79" d="M 1588 -325 
Q 1188 -997 936 -1164 
Q 684 -1331 294 -1331 
L -159 -1331 
L -63 -850 
L 269 -850 
Q 509 -850 678 -719 
Q 847 -588 1056 -206 
L 1234 128 
L 459 3500 
L 1069 3500 
L 1650 819 
L 3256 3500 
L 3859 3500 
L 1588 -325 
z
" transform="scale(0.015625)"/>
        <path id="DejaVuSans-Oblique-70" d="M 3175 2156 
Q 3175 2616 2975 2859 
Q 2775 3103 2400 3103 
Q 2144 3103 1911 2972 
Q 1678 2841 1497 2591 
Q 1319 2344 1212 1994 
Q 1106 1644 1106 1300 
Q 1106 863 1306 627 
Q 1506 391 1875 391 
Q 2147 391 2380 519 
Q 2613 647 2778 891 
Q 2956 1147 3065 1494 
Q 3175 1841 3175 2156 
z
M 1394 2969 
Q 1625 3272 1939 3428 
Q 2253 3584 2638 3584 
Q 3175 3584 3472 3232 
Q 3769 2881 3769 2247 
Q 3769 1728 3584 1258 
Q 3400 788 3053 416 
Q 2822 169 2531 39 
Q 2241 -91 1919 -91 
Q 1547 -91 1294 64 
Q 1041 219 916 525 
L 556 -1331 
L -19 -1331 
L 922 3500 
L 1497 3500 
L 1394 2969 
z
" transform="scale(0.015625)"/>
        <path id="DejaVuSans-Oblique-74" d="M 2706 3500 
L 2619 3053 
L 1472 3053 
L 1100 1153 
Q 1081 1047 1072 975 
Q 1063 903 1063 863 
Q 1063 663 1183 572 
Q 1303 481 1569 481 
L 2150 481 
L 2053 0 
L 1503 0 
Q 991 0 739 200 
Q 488 400 488 806 
Q 488 878 497 964 
Q 506 1050 525 1153 
L 897 3053 
L 409 3053 
L 500 3500 
L 978 3500 
L 1172 4494 
L 1747 4494 
L 1556 3500 
L 2706 3500 
z
" transform="scale(0.015625)"/>
        <path id="DejaVuSans-Oblique-69" d="M 1172 4863 
L 1747 4863 
L 1606 4134 
L 1031 4134 
L 1172 4863 
z
M 909 3500 
L 1484 3500 
L 800 0 
L 225 0 
L 909 3500 
z
" transform="scale(0.015625)"/>
       </defs>
       <use xlink:href="#DejaVuSans-Oblique-41" transform="translate(0 0.015625)"/>
       <use xlink:href="#DejaVuSans-Oblique-65" transform="translate(68.408203 0.015625)"/>
       <use xlink:href="#DejaVuSans-2e" transform="translate(129.931641 0.015625)"/>
       <use xlink:href="#DejaVuSans-Oblique-61" transform="translate(181.201172 0.015625)"/>
       <use xlink:href="#DejaVuSans-Oblique-65" transform="translate(242.480469 0.015625)"/>
       <use xlink:href="#DejaVuSans-Oblique-67" transform="translate(304.003906 0.015625)"/>
       <use xlink:href="#DejaVuSans-Oblique-79" transform="translate(367.480469 0.015625)"/>
       <use xlink:href="#DejaVuSans-Oblique-70" transform="translate(426.660156 0.015625)"/>
       <use xlink:href="#DejaVuSans-Oblique-74" transform="translate(490.136719 0.015625)"/>
       <use xlink:href="#DejaVuSans-Oblique-69" transform="translate(529.345703 0.015625)"/>
      </g>
     </g>
    </g>
    <g id="xtick_2">
     <g id="line2d_2">
      <g>
       <use xlink:href="#m6a356cfae8" x="214.10668" y="183.6" style="stroke: #000000; stroke-width: 0.8"/>
      </g>
     </g>
     <g id="text_2">
      <!-- $\it{Ae. albopictus}$ -->
      <g transform="translate(179.30668 198.2) scale(0.1 -0.1)">
       <defs>
        <path id="DejaVuSans-Oblique-6c" d="M 1172 4863 
L 1747 4863 
L 800 0 
L 225 0 
L 1172 4863 
z
" transform="scale(0.015625)"/>
        <path id="DejaVuSans-Oblique-62" d="M 3169 2138 
Q 3169 2591 2961 2847 
Q 2753 3103 2388 3103 
Q 2122 3103 1889 2973 
Q 1656 2844 1484 2597 
Q 1303 2338 1198 1995 
Q 1094 1653 1094 1313 
Q 1094 881 1298 636 
Q 1503 391 1863 391 
Q 2134 391 2365 517 
Q 2597 644 2772 891 
Q 2950 1147 3059 1487 
Q 3169 1828 3169 2138 
z
M 1381 2969 
Q 1594 3256 1914 3420 
Q 2234 3584 2584 3584 
Q 3122 3584 3439 3221 
Q 3756 2859 3756 2241 
Q 3756 1734 3570 1259 
Q 3384 784 3041 416 
Q 2816 172 2522 40 
Q 2228 -91 1906 -91 
Q 1566 -91 1316 65 
Q 1066 222 909 531 
L 806 0 
L 231 0 
L 1178 4863 
L 1753 4863 
L 1381 2969 
z
" transform="scale(0.015625)"/>
        <path id="DejaVuSans-Oblique-6f" d="M 1625 -91 
Q 1009 -91 651 289 
Q 294 669 294 1325 
Q 294 1706 417 2101 
Q 541 2497 738 2766 
Q 1047 3184 1428 3384 
Q 1809 3584 2291 3584 
Q 2888 3584 3255 3212 
Q 3622 2841 3622 2241 
Q 3622 1825 3500 1412 
Q 3378 1000 3181 728 
Q 2875 309 2494 109 
Q 2113 -91 1625 -91 
z
M 891 1344 
Q 891 869 1089 633 
Q 1288 397 1691 397 
Q 2269 397 2648 901 
Q 3028 1406 3028 2181 
Q 3028 2634 2825 2865 
Q 2622 3097 2228 3097 
Q 1903 3097 1650 2945 
Q 1397 2794 1197 2484 
Q 1050 2253 970 1956 
Q 891 1659 891 1344 
z
" transform="scale(0.015625)"/>
        <path id="DejaVuSans-Oblique-63" d="M 3431 3366 
L 3316 2797 
Q 3109 2947 2876 3022 
Q 2644 3097 2394 3097 
Q 2119 3097 1870 3000 
Q 1622 2903 1453 2725 
Q 1184 2453 1037 2087 
Q 891 1722 891 1331 
Q 891 859 1127 628 
Q 1363 397 1844 397 
Q 2081 397 2348 469 
Q 2616 541 2906 684 
L 2797 116 
Q 2547 13 2283 -39 
Q 2019 -91 1741 -91 
Q 1044 -91 669 257 
Q 294 606 294 1253 
Q 294 1797 489 2255 
Q 684 2713 1069 3078 
Q 1331 3328 1684 3456 
Q 2038 3584 2456 3584 
Q 2700 3584 2940 3529 
Q 3181 3475 3431 3366 
z
" transform="scale(0.015625)"/>
        <path id="DejaVuSans-Oblique-75" d="M 428 1388 
L 838 3500 
L 1416 3500 
L 1006 1409 
Q 975 1256 961 1147 
Q 947 1038 947 966 
Q 947 700 1109 554 
Q 1272 409 1569 409 
Q 2031 409 2368 721 
Q 2706 1034 2809 1563 
L 3194 3500 
L 3769 3500 
L 3091 0 
L 2516 0 
L 2631 550 
Q 2388 244 2052 76 
Q 1716 -91 1338 -91 
Q 878 -91 622 161 
Q 366 413 366 863 
Q 366 956 381 1097 
Q 397 1238 428 1388 
z
" transform="scale(0.015625)"/>
        <path id="DejaVuSans-Oblique-73" d="M 3200 3397 
L 3091 2853 
Q 2863 2978 2609 3040 
Q 2356 3103 2088 3103 
Q 1634 3103 1373 2948 
Q 1113 2794 1113 2528 
Q 1113 2219 1719 2053 
Q 1766 2041 1788 2034 
L 1972 1978 
Q 2547 1819 2739 1644 
Q 2931 1469 2931 1166 
Q 2931 609 2489 259 
Q 2047 -91 1331 -91 
Q 1053 -91 747 -37 
Q 441 16 72 128 
L 184 722 
Q 500 559 806 475 
Q 1113 391 1394 391 
Q 1816 391 2080 572 
Q 2344 753 2344 1031 
Q 2344 1331 1650 1516 
L 1591 1531 
L 1394 1581 
Q 956 1697 753 1886 
Q 550 2075 550 2369 
Q 550 2928 970 3256 
Q 1391 3584 2113 3584 
Q 2397 3584 2667 3537 
Q 2938 3491 3200 3397 
z
" transform="scale(0.015625)"/>
       </defs>
       <use xlink:href="#DejaVuSans-Oblique-41" transform="translate(0 0.015625)"/>
       <use xlink:href="#DejaVuSans-Oblique-65" transform="translate(68.408203 0.015625)"/>
       <use xlink:href="#DejaVuSans-2e" transform="translate(129.931641 0.015625)"/>
       <use xlink:href="#DejaVuSans-Oblique-61" transform="translate(181.201172 0.015625)"/>
       <use xlink:href="#DejaVuSans-Oblique-6c" transform="translate(242.480469 0.015625)"/>
       <use xlink:href="#DejaVuSans-Oblique-62" transform="translate(270.263672 0.015625)"/>
       <use xlink:href="#DejaVuSans-Oblique-6f" transform="translate(333.740234 0.015625)"/>
       <use xlink:href="#DejaVuSans-Oblique-70" transform="translate(394.921875 0.015625)"/>
       <use xlink:href="#DejaVuSans-Oblique-69" transform="translate(458.398438 0.015625)"/>
       <use xlink:href="#DejaVuSans-Oblique-63" transform="translate(486.181641 0.015625)"/>
       <use xlink:href="#DejaVuSans-Oblique-74" transform="translate(541.162109 0.015625)"/>
       <use xlink:href="#DejaVuSans-Oblique-75" transform="translate(580.371094 0.015625)"/>
       <use xlink:href="#DejaVuSans-Oblique-73" transform="translate(643.75 0.015625)"/>
      </g>
     </g>
    </g>
    <g id="xtick_3">
     <g id="line2d_3">
      <g>
       <use xlink:href="#m6a356cfae8" x="288.074883" y="183.6" style="stroke: #000000; stroke-width: 0.8"/>
      </g>
     </g>
     <g id="text_3">
      <!-- $\it{Ae. japonicus}$ -->
      <g transform="translate(255.224883 198.2) scale(0.1 -0.1)">
       <defs>
        <path id="DejaVuSans-Oblique-6a" d="M 928 3500 
L 1503 3500 
L 813 -63 
L 809 -78 
Q 694 -675 544 -897 
Q 403 -1106 132 -1218 
Q -138 -1331 -506 -1331 
L -722 -1331 
L -628 -844 
L -481 -844 
Q -144 -844 -1 -703 
Q 141 -563 238 -63 
L 928 3500 
z
M 1197 4863 
L 1772 4863 
L 1631 4134 
L 1056 4134 
L 1197 4863 
z
" transform="scale(0.015625)"/>
        <path id="DejaVuSans-Oblique-6e" d="M 3566 2113 
L 3156 0 
L 2578 0 
L 2988 2091 
Q 3016 2238 3031 2350 
Q 3047 2463 3047 2528 
Q 3047 2791 2881 2937 
Q 2716 3084 2419 3084 
Q 1956 3084 1622 2776 
Q 1288 2469 1184 1941 
L 800 0 
L 225 0 
L 903 3500 
L 1478 3500 
L 1363 2950 
Q 1603 3253 1940 3418 
Q 2278 3584 2650 3584 
Q 3113 3584 3367 3334 
Q 3622 3084 3622 2631 
Q 3622 2519 3608 2391 
Q 3594 2263 3566 2113 
z
" transform="scale(0.015625)"/>
       </defs>
       <use xlink:href="#DejaVuSans-Oblique-41" transform="translate(0 0.015625)"/>
       <use xlink:href="#DejaVuSans-Oblique-65" transform="translate(68.408203 0.015625)"/>
       <use xlink:href="#DejaVuSans-2e" transform="translate(129.931641 0.015625)"/>
       <use xlink:href="#DejaVuSans-Oblique-6a" transform="translate(181.201172 0.015625)"/>
       <use xlink:href="#DejaVuSans-Oblique-61" transform="translate(208.984375 0.015625)"/>
       <use xlink:href="#DejaVuSans-Oblique-70" transform="translate(270.263672 0.015625)"/>
       <use xlink:href="#DejaVuSans-Oblique-6f" transform="translate(333.740234 0.015625)"/>
       <use xlink:href="#DejaVuSans-Oblique-6e" transform="translate(394.921875 0.015625)"/>
       <use xlink:href="#DejaVuSans-Oblique-69" transform="translate(458.300781 0.015625)"/>
       <use xlink:href="#DejaVuSans-Oblique-63" transform="translate(486.083984 0.015625)"/>
       <use xlink:href="#DejaVuSans-Oblique-75" transform="translate(541.064453 0.015625)"/>
       <use xlink:href="#DejaVuSans-Oblique-73" transform="translate(604.443359 0.015625)"/>
      </g>
     </g>
    </g>
    <g id="xtick_4">
     <g id="line2d_4">
      <g>
       <use xlink:href="#m6a356cfae8" x="362.043086" y="183.6" style="stroke: #000000; stroke-width: 0.8"/>
      </g>
     </g>
     <g id="text_4">
      <!-- $\it{Ae. koreicus}$ -->
      <g transform="translate(331.943086 198.198438) scale(0.1 -0.1)">
       <defs>
        <path id="DejaVuSans-Oblique-6b" d="M 1172 4863 
L 1747 4863 
L 1197 2028 
L 3169 3500 
L 3916 3500 
L 1716 1825 
L 3322 0 
L 2625 0 
L 1131 1709 
L 800 0 
L 225 0 
L 1172 4863 
z
" transform="scale(0.015625)"/>
        <path id="DejaVuSans-Oblique-72" d="M 2853 2969 
Q 2766 3016 2653 3041 
Q 2541 3066 2413 3066 
Q 1953 3066 1609 2717 
Q 1266 2369 1153 1784 
L 800 0 
L 225 0 
L 909 3500 
L 1484 3500 
L 1375 2956 
Q 1603 3259 1920 3421 
Q 2238 3584 2597 3584 
Q 2691 3584 2781 3573 
Q 2872 3563 2963 3538 
L 2853 2969 
z
" transform="scale(0.015625)"/>
       </defs>
       <use xlink:href="#DejaVuSans-Oblique-41" transform="translate(0 0.015625)"/>
       <use xlink:href="#DejaVuSans-Oblique-65" transform="translate(68.408203 0.015625)"/>
       <use xlink:href="#DejaVuSans-2e" transform="translate(129.931641 0.015625)"/>
       <use xlink:href="#DejaVuSans-Oblique-6b" transform="translate(181.201172 0.015625)"/>
       <use xlink:href="#DejaVuSans-Oblique-6f" transform="translate(239.111328 0.015625)"/>
       <use xlink:href="#DejaVuSans-Oblique-72" transform="translate(300.292969 0.015625)"/>
       <use xlink:href="#DejaVuSans-Oblique-65" transform="translate(341.40625 0.015625)"/>
       <use xlink:href="#DejaVuSans-Oblique-69" transform="translate(402.929688 0.015625)"/>
       <use xlink:href="#DejaVuSans-Oblique-63" transform="translate(430.712891 0.015625)"/>
       <use xlink:href="#DejaVuSans-Oblique-75" transform="translate(485.693359 0.015625)"/>
       <use xlink:href="#DejaVuSans-Oblique-73" transform="translate(549.072266 0.015625)"/>
      </g>
     </g>
    </g>
    <g id="text_5">
     <!-- Prediction -->
     <g transform="translate(226.254063 211.898438) scale(0.1 -0.1)">
      <defs>
       <path id="DejaVuSans-50" d="M 1259 4147 
L 1259 2394 
L 2053 2394 
Q 2494 2394 2734 2622 
Q 2975 2850 2975 3272 
Q 2975 3691 2734 3919 
Q 2494 4147 2053 4147 
L 1259 4147 
z
M 628 4666 
L 2053 4666 
Q 2838 4666 3239 4311 
Q 3641 3956 3641 3272 
Q 3641 2581 3239 2228 
Q 2838 1875 2053 1875 
L 1259 1875 
L 1259 0 
L 628 0 
L 628 4666 
z
" transform="scale(0.015625)"/>
       <path id="DejaVuSans-72" d="M 2631 2963 
Q 2534 3019 2420 3045 
Q 2306 3072 2169 3072 
Q 1681 3072 1420 2755 
Q 1159 2438 1159 1844 
L 1159 0 
L 581 0 
L 581 3500 
L 1159 3500 
L 1159 2956 
Q 1341 3275 1631 3429 
Q 1922 3584 2338 3584 
Q 2397 3584 2469 3576 
Q 2541 3569 2628 3553 
L 2631 2963 
z
" transform="scale(0.015625)"/>
       <path id="DejaVuSans-65" d="M 3597 1894 
L 3597 1613 
L 953 1613 
Q 991 1019 1311 708 
Q 1631 397 2203 397 
Q 2534 397 2845 478 
Q 3156 559 3463 722 
L 3463 178 
Q 3153 47 2828 -22 
Q 2503 -91 2169 -91 
Q 1331 -91 842 396 
Q 353 884 353 1716 
Q 353 2575 817 3079 
Q 1281 3584 2069 3584 
Q 2775 3584 3186 3129 
Q 3597 2675 3597 1894 
z
M 3022 2063 
Q 3016 2534 2758 2815 
Q 2500 3097 2075 3097 
Q 1594 3097 1305 2825 
Q 1016 2553 972 2059 
L 3022 2063 
z
" transform="scale(0.015625)"/>
       <path id="DejaVuSans-64" d="M 2906 2969 
L 2906 4863 
L 3481 4863 
L 3481 0 
L 2906 0 
L 2906 525 
Q 2725 213 2448 61 
Q 2172 -91 1784 -91 
Q 1150 -91 751 415 
Q 353 922 353 1747 
Q 353 2572 751 3078 
Q 1150 3584 1784 3584 
Q 2172 3584 2448 3432 
Q 2725 3281 2906 2969 
z
M 947 1747 
Q 947 1113 1208 752 
Q 1469 391 1925 391 
Q 2381 391 2643 752 
Q 2906 1113 2906 1747 
Q 2906 2381 2643 2742 
Q 2381 3103 1925 3103 
Q 1469 3103 1208 2742 
Q 947 2381 947 1747 
z
" transform="scale(0.015625)"/>
       <path id="DejaVuSans-69" d="M 603 3500 
L 1178 3500 
L 1178 0 
L 603 0 
L 603 3500 
z
M 603 4863 
L 1178 4863 
L 1178 4134 
L 603 4134 
L 603 4863 
z
" transform="scale(0.015625)"/>
       <path id="DejaVuSans-63" d="M 3122 3366 
L 3122 2828 
Q 2878 2963 2633 3030 
Q 2388 3097 2138 3097 
Q 1578 3097 1268 2742 
Q 959 2388 959 1747 
Q 959 1106 1268 751 
Q 1578 397 2138 397 
Q 2388 397 2633 464 
Q 2878 531 3122 666 
L 3122 134 
Q 2881 22 2623 -34 
Q 2366 -91 2075 -91 
Q 1284 -91 818 406 
Q 353 903 353 1747 
Q 353 2603 823 3093 
Q 1294 3584 2113 3584 
Q 2378 3584 2631 3529 
Q 2884 3475 3122 3366 
z
" transform="scale(0.015625)"/>
       <path id="DejaVuSans-74" d="M 1172 4494 
L 1172 3500 
L 2356 3500 
L 2356 3053 
L 1172 3053 
L 1172 1153 
Q 1172 725 1289 603 
Q 1406 481 1766 481 
L 2356 481 
L 2356 0 
L 1766 0 
Q 1100 0 847 248 
Q 594 497 594 1153 
L 594 3053 
L 172 3053 
L 172 3500 
L 594 3500 
L 594 4494 
L 1172 4494 
z
" transform="scale(0.015625)"/>
       <path id="DejaVuSans-6f" d="M 1959 3097 
Q 1497 3097 1228 2736 
Q 959 2375 959 1747 
Q 959 1119 1226 758 
Q 1494 397 1959 397 
Q 2419 397 2687 759 
Q 2956 1122 2956 1747 
Q 2956 2369 2687 2733 
Q 2419 3097 1959 3097 
z
M 1959 3584 
Q 2709 3584 3137 3096 
Q 3566 2609 3566 1747 
Q 3566 888 3137 398 
Q 2709 -91 1959 -91 
Q 1206 -91 779 398 
Q 353 888 353 1747 
Q 353 2609 779 3096 
Q 1206 3584 1959 3584 
z
" transform="scale(0.015625)"/>
       <path id="DejaVuSans-6e" d="M 3513 2113 
L 3513 0 
L 2938 0 
L 2938 2094 
Q 2938 2591 2744 2837 
Q 2550 3084 2163 3084 
Q 1697 3084 1428 2787 
Q 1159 2491 1159 1978 
L 1159 0 
L 581 0 
L 581 3500 
L 1159 3500 
L 1159 2956 
Q 1366 3272 1645 3428 
Q 1925 3584 2291 3584 
Q 2894 3584 3203 3211 
Q 3513 2838 3513 2113 
z
" transform="scale(0.015625)"/>
      </defs>
      <use xlink:href="#DejaVuSans-50"/>
      <use xlink:href="#DejaVuSans-72" x="58.552734"/>
      <use xlink:href="#DejaVuSans-65" x="97.416016"/>
      <use xlink:href="#DejaVuSans-64" x="158.939453"/>
      <use xlink:href="#DejaVuSans-69" x="222.416016"/>
      <use xlink:href="#DejaVuSans-63" x="250.199219"/>
      <use xlink:href="#DejaVuSans-74" x="305.179688"/>
      <use xlink:href="#DejaVuSans-69" x="344.388672"/>
      <use xlink:href="#DejaVuSans-6f" x="372.171875"/>
      <use xlink:href="#DejaVuSans-6e" x="433.353516"/>
     </g>
    </g>
   </g>
   <g id="matplotlib.axis_2">
    <g id="ytick_1">
     <g id="line2d_5">
      <defs>
       <path id="m991daea3d2" d="M 0 0 
L -3.5 0 
" style="stroke: #000000; stroke-width: 0.8"/>
      </defs>
      <g>
       <use xlink:href="#m991daea3d2" x="103.154375" y="46.47" style="stroke: #000000; stroke-width: 0.8"/>
      </g>
     </g>
     <g id="text_6">
      <!-- $\it{Ae. aegypti}$ -->
      <g transform="translate(40.354375 49.22) scale(0.1 -0.1)">
       <use xlink:href="#DejaVuSans-Oblique-41" transform="translate(0 0.015625)"/>
       <use xlink:href="#DejaVuSans-Oblique-65" transform="translate(68.408203 0.015625)"/>
       <use xlink:href="#DejaVuSans-2e" transform="translate(129.931641 0.015625)"/>
       <use xlink:href="#DejaVuSans-Oblique-61" transform="translate(181.201172 0.015625)"/>
       <use xlink:href="#DejaVuSans-Oblique-65" transform="translate(242.480469 0.015625)"/>
       <use xlink:href="#DejaVuSans-Oblique-67" transform="translate(304.003906 0.015625)"/>
       <use xlink:href="#DejaVuSans-Oblique-79" transform="translate(367.480469 0.015625)"/>
       <use xlink:href="#DejaVuSans-Oblique-70" transform="translate(426.660156 0.015625)"/>
       <use xlink:href="#DejaVuSans-Oblique-74" transform="translate(490.136719 0.015625)"/>
       <use xlink:href="#DejaVuSans-Oblique-69" transform="translate(529.345703 0.015625)"/>
      </g>
     </g>
    </g>
    <g id="ytick_2">
     <g id="line2d_6">
      <g>
       <use xlink:href="#m991daea3d2" x="103.154375" y="85.65" style="stroke: #000000; stroke-width: 0.8"/>
      </g>
     </g>
     <g id="text_7">
      <!-- $\it{Ae. albopictus}$ -->
      <g transform="translate(26.554375 88.4) scale(0.1 -0.1)">
       <use xlink:href="#DejaVuSans-Oblique-41" transform="translate(0 0.015625)"/>
       <use xlink:href="#DejaVuSans-Oblique-65" transform="translate(68.408203 0.015625)"/>
       <use xlink:href="#DejaVuSans-2e" transform="translate(129.931641 0.015625)"/>
       <use xlink:href="#DejaVuSans-Oblique-61" transform="translate(181.201172 0.015625)"/>
       <use xlink:href="#DejaVuSans-Oblique-6c" transform="translate(242.480469 0.015625)"/>
       <use xlink:href="#DejaVuSans-Oblique-62" transform="translate(270.263672 0.015625)"/>
       <use xlink:href="#DejaVuSans-Oblique-6f" transform="translate(333.740234 0.015625)"/>
       <use xlink:href="#DejaVuSans-Oblique-70" transform="translate(394.921875 0.015625)"/>
       <use xlink:href="#DejaVuSans-Oblique-69" transform="translate(458.398438 0.015625)"/>
       <use xlink:href="#DejaVuSans-Oblique-63" transform="translate(486.181641 0.015625)"/>
       <use xlink:href="#DejaVuSans-Oblique-74" transform="translate(541.162109 0.015625)"/>
       <use xlink:href="#DejaVuSans-Oblique-75" transform="translate(580.371094 0.015625)"/>
       <use xlink:href="#DejaVuSans-Oblique-73" transform="translate(643.75 0.015625)"/>
      </g>
     </g>
    </g>
    <g id="ytick_3">
     <g id="line2d_7">
      <g>
       <use xlink:href="#m991daea3d2" x="103.154375" y="124.83" style="stroke: #000000; stroke-width: 0.8"/>
      </g>
     </g>
     <g id="text_8">
      <!-- $\it{Ae. japonicus}$ -->
      <g transform="translate(30.454375 127.58) scale(0.1 -0.1)">
       <use xlink:href="#DejaVuSans-Oblique-41" transform="translate(0 0.015625)"/>
       <use xlink:href="#DejaVuSans-Oblique-65" transform="translate(68.408203 0.015625)"/>
       <use xlink:href="#DejaVuSans-2e" transform="translate(129.931641 0.015625)"/>
       <use xlink:href="#DejaVuSans-Oblique-6a" transform="translate(181.201172 0.015625)"/>
       <use xlink:href="#DejaVuSans-Oblique-61" transform="translate(208.984375 0.015625)"/>
       <use xlink:href="#DejaVuSans-Oblique-70" transform="translate(270.263672 0.015625)"/>
       <use xlink:href="#DejaVuSans-Oblique-6f" transform="translate(333.740234 0.015625)"/>
       <use xlink:href="#DejaVuSans-Oblique-6e" transform="translate(394.921875 0.015625)"/>
       <use xlink:href="#DejaVuSans-Oblique-69" transform="translate(458.300781 0.015625)"/>
       <use xlink:href="#DejaVuSans-Oblique-63" transform="translate(486.083984 0.015625)"/>
       <use xlink:href="#DejaVuSans-Oblique-75" transform="translate(541.064453 0.015625)"/>
       <use xlink:href="#DejaVuSans-Oblique-73" transform="translate(604.443359 0.015625)"/>
      </g>
     </g>
    </g>
    <g id="ytick_4">
     <g id="line2d_8">
      <g>
       <use xlink:href="#m991daea3d2" x="103.154375" y="164.01" style="stroke: #000000; stroke-width: 0.8"/>
      </g>
     </g>
     <g id="text_9">
      <!-- $\it{Ae. koreicus}$ -->
      <g transform="translate(35.954375 166.769375) scale(0.1 -0.1)">
       <use xlink:href="#DejaVuSans-Oblique-41" transform="translate(0 0.015625)"/>
       <use xlink:href="#DejaVuSans-Oblique-65" transform="translate(68.408203 0.015625)"/>
       <use xlink:href="#DejaVuSans-2e" transform="translate(129.931641 0.015625)"/>
       <use xlink:href="#DejaVuSans-Oblique-6b" transform="translate(181.201172 0.015625)"/>
       <use xlink:href="#DejaVuSans-Oblique-6f" transform="translate(239.111328 0.015625)"/>
       <use xlink:href="#DejaVuSans-Oblique-72" transform="translate(300.292969 0.015625)"/>
       <use xlink:href="#DejaVuSans-Oblique-65" transform="translate(341.40625 0.015625)"/>
       <use xlink:href="#DejaVuSans-Oblique-69" transform="translate(402.929688 0.015625)"/>
       <use xlink:href="#DejaVuSans-Oblique-63" transform="translate(430.712891 0.015625)"/>
       <use xlink:href="#DejaVuSans-Oblique-75" transform="translate(485.693359 0.015625)"/>
       <use xlink:href="#DejaVuSans-Oblique-73" transform="translate(549.072266 0.015625)"/>
      </g>
     </g>
    </g>
    <g id="text_10">
     <!-- True -->
     <g transform="translate(20.474688 115.857188) rotate(-90) scale(0.1 -0.1)">
      <defs>
       <path id="DejaVuSans-54" d="M -19 4666 
L 3928 4666 
L 3928 4134 
L 2272 4134 
L 2272 0 
L 1638 0 
L 1638 4134 
L -19 4134 
L -19 4666 
z
" transform="scale(0.015625)"/>
       <path id="DejaVuSans-75" d="M 544 1381 
L 544 3500 
L 1119 3500 
L 1119 1403 
Q 1119 906 1312 657 
Q 1506 409 1894 409 
Q 2359 409 2629 706 
Q 2900 1003 2900 1516 
L 2900 3500 
L 3475 3500 
L 3475 0 
L 2900 0 
L 2900 538 
Q 2691 219 2414 64 
Q 2138 -91 1772 -91 
Q 1169 -91 856 284 
Q 544 659 544 1381 
z
M 1991 3584 
L 1991 3584 
z
" transform="scale(0.015625)"/>
      </defs>
      <use xlink:href="#DejaVuSans-54"/>
      <use xlink:href="#DejaVuSans-72" x="46.333984"/>
      <use xlink:href="#DejaVuSans-75" x="87.447266"/>
      <use xlink:href="#DejaVuSans-65" x="150.826172"/>
     </g>
    </g>
   </g>
   <g id="text_11">
    <!-- 82.1 -->
    <g style="fill: #ffffff" transform="translate(129.005664 49.229375) scale(0.1 -0.1)">
     <defs>
      <path id="DejaVuSans-38" d="M 2034 2216 
Q 1584 2216 1326 1975 
Q 1069 1734 1069 1313 
Q 1069 891 1326 650 
Q 1584 409 2034 409 
Q 2484 409 2743 651 
Q 3003 894 3003 1313 
Q 3003 1734 2745 1975 
Q 2488 2216 2034 2216 
z
M 1403 2484 
Q 997 2584 770 2862 
Q 544 3141 544 3541 
Q 544 4100 942 4425 
Q 1341 4750 2034 4750 
Q 2731 4750 3128 4425 
Q 3525 4100 3525 3541 
Q 3525 3141 3298 2862 
Q 3072 2584 2669 2484 
Q 3125 2378 3379 2068 
Q 3634 1759 3634 1313 
Q 3634 634 3220 271 
Q 2806 -91 2034 -91 
Q 1263 -91 848 271 
Q 434 634 434 1313 
Q 434 1759 690 2068 
Q 947 2378 1403 2484 
z
M 1172 3481 
Q 1172 3119 1398 2916 
Q 1625 2713 2034 2713 
Q 2441 2713 2670 2916 
Q 2900 3119 2900 3481 
Q 2900 3844 2670 4047 
Q 2441 4250 2034 4250 
Q 1625 4250 1398 4047 
Q 1172 3844 1172 3481 
z
" transform="scale(0.015625)"/>
      <path id="DejaVuSans-32" d="M 1228 531 
L 3431 531 
L 3431 0 
L 469 0 
L 469 531 
Q 828 903 1448 1529 
Q 2069 2156 2228 2338 
Q 2531 2678 2651 2914 
Q 2772 3150 2772 3378 
Q 2772 3750 2511 3984 
Q 2250 4219 1831 4219 
Q 1534 4219 1204 4116 
Q 875 4013 500 3803 
L 500 4441 
Q 881 4594 1212 4672 
Q 1544 4750 1819 4750 
Q 2544 4750 2975 4387 
Q 3406 4025 3406 3419 
Q 3406 3131 3298 2873 
Q 3191 2616 2906 2266 
Q 2828 2175 2409 1742 
Q 1991 1309 1228 531 
z
" transform="scale(0.015625)"/>
      <path id="DejaVuSans-31" d="M 794 531 
L 1825 531 
L 1825 4091 
L 703 3866 
L 703 4441 
L 1819 4666 
L 2450 4666 
L 2450 531 
L 3481 531 
L 3481 0 
L 794 0 
L 794 531 
z
" transform="scale(0.015625)"/>
     </defs>
     <use xlink:href="#DejaVuSans-38"/>
     <use xlink:href="#DejaVuSans-32" x="63.623047"/>
     <use xlink:href="#DejaVuSans-2e" x="127.246094"/>
     <use xlink:href="#DejaVuSans-31" x="159.033203"/>
    </g>
   </g>
   <g id="text_12">
    <!-- 11.7 -->
    <g style="fill: #262626" transform="translate(202.973867 49.229375) scale(0.1 -0.1)">
     <defs>
      <path id="DejaVuSans-37" d="M 525 4666 
L 3525 4666 
L 3525 4397 
L 1831 0 
L 1172 0 
L 2766 4134 
L 525 4134 
L 525 4666 
z
" transform="scale(0.015625)"/>
     </defs>
     <use xlink:href="#DejaVuSans-31"/>
     <use xlink:href="#DejaVuSans-31" x="63.623047"/>
     <use xlink:href="#DejaVuSans-2e" x="127.246094"/>
     <use xlink:href="#DejaVuSans-37" x="159.033203"/>
    </g>
   </g>
   <g id="text_13">
    <!-- 1.2 -->
    <g style="fill: #262626" transform="translate(280.12332 49.229375) scale(0.1 -0.1)">
     <use xlink:href="#DejaVuSans-31"/>
     <use xlink:href="#DejaVuSans-2e" x="63.623047"/>
     <use xlink:href="#DejaVuSans-32" x="95.410156"/>
    </g>
   </g>
   <g id="text_14">
    <!-- 5.0 -->
    <g style="fill: #262626" transform="translate(354.091523 49.229375) scale(0.1 -0.1)">
     <defs>
      <path id="DejaVuSans-35" d="M 691 4666 
L 3169 4666 
L 3169 4134 
L 1269 4134 
L 1269 2991 
Q 1406 3038 1543 3061 
Q 1681 3084 1819 3084 
Q 2600 3084 3056 2656 
Q 3513 2228 3513 1497 
Q 3513 744 3044 326 
Q 2575 -91 1722 -91 
Q 1428 -91 1123 -41 
Q 819 9 494 109 
L 494 744 
Q 775 591 1075 516 
Q 1375 441 1709 441 
Q 2250 441 2565 725 
Q 2881 1009 2881 1497 
Q 2881 1984 2565 2268 
Q 2250 2553 1709 2553 
Q 1456 2553 1204 2497 
Q 953 2441 691 2322 
L 691 4666 
z
" transform="scale(0.015625)"/>
      <path id="DejaVuSans-30" d="M 2034 4250 
Q 1547 4250 1301 3770 
Q 1056 3291 1056 2328 
Q 1056 1369 1301 889 
Q 1547 409 2034 409 
Q 2525 409 2770 889 
Q 3016 1369 3016 2328 
Q 3016 3291 2770 3770 
Q 2525 4250 2034 4250 
z
M 2034 4750 
Q 2819 4750 3233 4129 
Q 3647 3509 3647 2328 
Q 3647 1150 3233 529 
Q 2819 -91 2034 -91 
Q 1250 -91 836 529 
Q 422 1150 422 2328 
Q 422 3509 836 4129 
Q 1250 4750 2034 4750 
z
" transform="scale(0.015625)"/>
     </defs>
     <use xlink:href="#DejaVuSans-35"/>
     <use xlink:href="#DejaVuSans-2e" x="63.623047"/>
     <use xlink:href="#DejaVuSans-30" x="95.410156"/>
    </g>
   </g>
   <g id="text_15">
    <!-- 13.8 -->
    <g style="fill: #262626" transform="translate(129.005664 88.409375) scale(0.1 -0.1)">
     <defs>
      <path id="DejaVuSans-33" d="M 2597 2516 
Q 3050 2419 3304 2112 
Q 3559 1806 3559 1356 
Q 3559 666 3084 287 
Q 2609 -91 1734 -91 
Q 1441 -91 1130 -33 
Q 819 25 488 141 
L 488 750 
Q 750 597 1062 519 
Q 1375 441 1716 441 
Q 2309 441 2620 675 
Q 2931 909 2931 1356 
Q 2931 1769 2642 2001 
Q 2353 2234 1838 2234 
L 1294 2234 
L 1294 2753 
L 1863 2753 
Q 2328 2753 2575 2939 
Q 2822 3125 2822 3475 
Q 2822 3834 2567 4026 
Q 2313 4219 1838 4219 
Q 1578 4219 1281 4162 
Q 984 4106 628 3988 
L 628 4550 
Q 988 4650 1302 4700 
Q 1616 4750 1894 4750 
Q 2613 4750 3031 4423 
Q 3450 4097 3450 3541 
Q 3450 3153 3228 2886 
Q 3006 2619 2597 2516 
z
" transform="scale(0.015625)"/>
     </defs>
     <use xlink:href="#DejaVuSans-31"/>
     <use xlink:href="#DejaVuSans-33" x="63.623047"/>
     <use xlink:href="#DejaVuSans-2e" x="127.246094"/>
     <use xlink:href="#DejaVuSans-38" x="159.033203"/>
    </g>
   </g>
   <g id="text_16">
    <!-- 80.0 -->
    <g style="fill: #ffffff" transform="translate(202.973867 88.409375) scale(0.1 -0.1)">
     <use xlink:href="#DejaVuSans-38"/>
     <use xlink:href="#DejaVuSans-30" x="63.623047"/>
     <use xlink:href="#DejaVuSans-2e" x="127.246094"/>
     <use xlink:href="#DejaVuSans-30" x="159.033203"/>
    </g>
   </g>
   <g id="text_17">
    <!-- 5.0 -->
    <g style="fill: #262626" transform="translate(280.12332 88.409375) scale(0.1 -0.1)">
     <use xlink:href="#DejaVuSans-35"/>
     <use xlink:href="#DejaVuSans-2e" x="63.623047"/>
     <use xlink:href="#DejaVuSans-30" x="95.410156"/>
    </g>
   </g>
   <g id="text_18">
    <!-- 1.2 -->
    <g style="fill: #262626" transform="translate(354.091523 88.409375) scale(0.1 -0.1)">
     <use xlink:href="#DejaVuSans-31"/>
     <use xlink:href="#DejaVuSans-2e" x="63.623047"/>
     <use xlink:href="#DejaVuSans-32" x="95.410156"/>
    </g>
   </g>
   <g id="text_19">
    <!-- 0.0 -->
    <g style="fill: #262626" transform="translate(132.186914 127.589375) scale(0.1 -0.1)">
     <use xlink:href="#DejaVuSans-30"/>
     <use xlink:href="#DejaVuSans-2e" x="63.623047"/>
     <use xlink:href="#DejaVuSans-30" x="95.410156"/>
    </g>
   </g>
   <g id="text_20">
    <!-- 0.0 -->
    <g style="fill: #262626" transform="translate(206.155117 127.589375) scale(0.1 -0.1)">
     <use xlink:href="#DejaVuSans-30"/>
     <use xlink:href="#DejaVuSans-2e" x="63.623047"/>
     <use xlink:href="#DejaVuSans-30" x="95.410156"/>
    </g>
   </g>
   <g id="text_21">
    <!-- 87.9 -->
    <g style="fill: #ffffff" transform="translate(276.94207 127.589375) scale(0.1 -0.1)">
     <defs>
      <path id="DejaVuSans-39" d="M 703 97 
L 703 672 
Q 941 559 1184 500 
Q 1428 441 1663 441 
Q 2288 441 2617 861 
Q 2947 1281 2994 2138 
Q 2813 1869 2534 1725 
Q 2256 1581 1919 1581 
Q 1219 1581 811 2004 
Q 403 2428 403 3163 
Q 403 3881 828 4315 
Q 1253 4750 1959 4750 
Q 2769 4750 3195 4129 
Q 3622 3509 3622 2328 
Q 3622 1225 3098 567 
Q 2575 -91 1691 -91 
Q 1453 -91 1209 -44 
Q 966 3 703 97 
z
M 1959 2075 
Q 2384 2075 2632 2365 
Q 2881 2656 2881 3163 
Q 2881 3666 2632 3958 
Q 2384 4250 1959 4250 
Q 1534 4250 1286 3958 
Q 1038 3666 1038 3163 
Q 1038 2656 1286 2365 
Q 1534 2075 1959 2075 
z
" transform="scale(0.015625)"/>
     </defs>
     <use xlink:href="#DejaVuSans-38"/>
     <use xlink:href="#DejaVuSans-37" x="63.623047"/>
     <use xlink:href="#DejaVuSans-2e" x="127.246094"/>
     <use xlink:href="#DejaVuSans-39" x="159.033203"/>
    </g>
   </g>
   <g id="text_22">
    <!-- 12.1 -->
    <g style="fill: #262626" transform="translate(350.910273 127.589375) scale(0.1 -0.1)">
     <use xlink:href="#DejaVuSans-31"/>
     <use xlink:href="#DejaVuSans-32" x="63.623047"/>
     <use xlink:href="#DejaVuSans-2e" x="127.246094"/>
     <use xlink:href="#DejaVuSans-31" x="159.033203"/>
    </g>
   </g>
   <g id="text_23">
    <!-- 20.0 -->
    <g style="fill: #262626" transform="translate(129.005664 166.769375) scale(0.1 -0.1)">
     <use xlink:href="#DejaVuSans-32"/>
     <use xlink:href="#DejaVuSans-30" x="63.623047"/>
     <use xlink:href="#DejaVuSans-2e" x="127.246094"/>
     <use xlink:href="#DejaVuSans-30" x="159.033203"/>
    </g>
   </g>
   <g id="text_24">
    <!-- 7.5 -->
    <g style="fill: #262626" transform="translate(206.155117 166.769375) scale(0.1 -0.1)">
     <use xlink:href="#DejaVuSans-37"/>
     <use xlink:href="#DejaVuSans-2e" x="63.623047"/>
     <use xlink:href="#DejaVuSans-35" x="95.410156"/>
    </g>
   </g>
   <g id="text_25">
    <!-- 7.1 -->
    <g style="fill: #262626" transform="translate(280.12332 166.769375) scale(0.1 -0.1)">
     <use xlink:href="#DejaVuSans-37"/>
     <use xlink:href="#DejaVuSans-2e" x="63.623047"/>
     <use xlink:href="#DejaVuSans-31" x="95.410156"/>
    </g>
   </g>
   <g id="text_26">
    <!-- 65.4 -->
    <g style="fill: #ffffff" transform="translate(350.910273 166.769375) scale(0.1 -0.1)">
     <defs>
      <path id="DejaVuSans-36" d="M 2113 2584 
Q 1688 2584 1439 2293 
Q 1191 2003 1191 1497 
Q 1191 994 1439 701 
Q 1688 409 2113 409 
Q 2538 409 2786 701 
Q 3034 994 3034 1497 
Q 3034 2003 2786 2293 
Q 2538 2584 2113 2584 
z
M 3366 4563 
L 3366 3988 
Q 3128 4100 2886 4159 
Q 2644 4219 2406 4219 
Q 1781 4219 1451 3797 
Q 1122 3375 1075 2522 
Q 1259 2794 1537 2939 
Q 1816 3084 2150 3084 
Q 2853 3084 3261 2657 
Q 3669 2231 3669 1497 
Q 3669 778 3244 343 
Q 2819 -91 2113 -91 
Q 1303 -91 875 529 
Q 447 1150 447 2328 
Q 447 3434 972 4092 
Q 1497 4750 2381 4750 
Q 2619 4750 2861 4703 
Q 3103 4656 3366 4563 
z
" transform="scale(0.015625)"/>
      <path id="DejaVuSans-34" d="M 2419 4116 
L 825 1625 
L 2419 1625 
L 2419 4116 
z
M 2253 4666 
L 3047 4666 
L 3047 1625 
L 3713 1625 
L 3713 1100 
L 3047 1100 
L 3047 0 
L 2419 0 
L 2419 1100 
L 313 1100 
L 313 1709 
L 2253 4666 
z
" transform="scale(0.015625)"/>
     </defs>
     <use xlink:href="#DejaVuSans-36"/>
     <use xlink:href="#DejaVuSans-35" x="63.623047"/>
     <use xlink:href="#DejaVuSans-2e" x="127.246094"/>
     <use xlink:href="#DejaVuSans-34" x="159.033203"/>
    </g>
   </g>
   <g id="text_27">
    <!-- A -->
    <g transform="translate(246.986406 20.88) scale(0.12 -0.12)">
     <defs>
      <path id="DejaVuSans-41" d="M 2188 4044 
L 1331 1722 
L 3047 1722 
L 2188 4044 
z
M 1831 4666 
L 2547 4666 
L 4325 0 
L 3669 0 
L 3244 1197 
L 1141 1197 
L 716 0 
L 50 0 
L 1831 4666 
z
" transform="scale(0.015625)"/>
     </defs>
     <use xlink:href="#DejaVuSans-41"/>
    </g>
   </g>
  </g>
  <g id="axes_2">
   <g id="patch_3">
    <path d="M 413.327188 183.6 
L 709.2 183.6 
L 709.2 26.88 
L 413.327188 26.88 
z
" style="fill: #ffffff"/>
   </g>
   <g id="QuadMesh_2">
    <path d="M 413.327188 26.88 
L 487.295391 26.88 
L 487.295391 66.06 
L 413.327188 66.06 
L 413.327188 26.88 
" clip-path="url(#pd6c4f2523b)" style="fill: #05712f; stroke: #ffffff"/>
    <path d="M 487.295391 26.88 
L 561.263594 26.88 
L 561.263594 66.06 
L 487.295391 66.06 
L 487.295391 26.88 
" clip-path="url(#pd6c4f2523b)" style="fill: #e7f6e3; stroke: #ffffff"/>
    <path d="M 561.263594 26.88 
L 635.231797 26.88 
L 635.231797 66.06 
L 561.263594 66.06 
L 561.263594 26.88 
" clip-path="url(#pd6c4f2523b)" style="fill: #f7fcf5; stroke: #ffffff"/>
    <path d="M 635.231797 26.88 
L 709.2 26.88 
L 709.2 66.06 
L 635.231797 66.06 
L 635.231797 26.88 
" clip-path="url(#pd6c4f2523b)" style="fill: #f3faf0; stroke: #ffffff"/>
    <path d="M 413.327188 66.06 
L 487.295391 66.06 
L 487.295391 105.24 
L 413.327188 105.24 
L 413.327188 66.06 
" clip-path="url(#pd6c4f2523b)" style="fill: #d3eecd; stroke: #ffffff"/>
    <path d="M 487.295391 66.06 
L 561.263594 66.06 
L 561.263594 105.24 
L 487.295391 105.24 
L 487.295391 66.06 
" clip-path="url(#pd6c4f2523b)" style="fill: #16803c; stroke: #ffffff"/>
    <path d="M 561.263594 66.06 
L 635.231797 66.06 
L 635.231797 105.24 
L 561.263594 105.24 
L 561.263594 66.06 
" clip-path="url(#pd6c4f2523b)" style="fill: #f7fcf5; stroke: #ffffff"/>
    <path d="M 635.231797 66.06 
L 709.2 66.06 
L 709.2 105.24 
L 635.231797 105.24 
L 635.231797 66.06 
" clip-path="url(#pd6c4f2523b)" style="fill: #f6fcf4; stroke: #ffffff"/>
    <path d="M 413.327188 105.24 
L 487.295391 105.24 
L 487.295391 144.42 
L 413.327188 144.42 
L 413.327188 105.24 
" clip-path="url(#pd6c4f2523b)" style="fill: #f7fcf5; stroke: #ffffff"/>
    <path d="M 487.295391 105.24 
L 561.263594 105.24 
L 561.263594 144.42 
L 487.295391 144.42 
L 487.295391 105.24 
" clip-path="url(#pd6c4f2523b)" style="fill: #f7fcf5; stroke: #ffffff"/>
    <path d="M 561.263594 105.24 
L 635.231797 105.24 
L 635.231797 144.42 
L 561.263594 144.42 
L 561.263594 105.24 
" clip-path="url(#pd6c4f2523b)" style="fill: #006c2c; stroke: #ffffff"/>
    <path d="M 635.231797 105.24 
L 709.2 105.24 
L 709.2 144.42 
L 635.231797 144.42 
L 635.231797 105.24 
" clip-path="url(#pd6c4f2523b)" style="fill: #e5f5e0; stroke: #ffffff"/>
    <path d="M 413.327188 144.42 
L 487.295391 144.42 
L 487.295391 183.6 
L 413.327188 183.6 
L 413.327188 144.42 
" clip-path="url(#pd6c4f2523b)" style="fill: #f6fcf4; stroke: #ffffff"/>
    <path d="M 487.295391 144.42 
L 561.263594 144.42 
L 561.263594 183.6 
L 487.295391 183.6 
L 487.295391 144.42 
" clip-path="url(#pd6c4f2523b)" style="fill: #f6fcf4; stroke: #ffffff"/>
    <path d="M 561.263594 144.42 
L 635.231797 144.42 
L 635.231797 183.6 
L 561.263594 183.6 
L 561.263594 144.42 
" clip-path="url(#pd6c4f2523b)" style="fill: #f5fbf3; stroke: #ffffff"/>
    <path d="M 635.231797 144.42 
L 709.2 144.42 
L 709.2 183.6 
L 635.231797 183.6 
L 635.231797 144.42 
" clip-path="url(#pd6c4f2523b)" style="fill: #004c1e; stroke: #ffffff"/>
   </g>
   <g id="matplotlib.axis_3">
    <g id="xtick_5">
     <g id="line2d_9">
      <g>
       <use xlink:href="#m6a356cfae8" x="450.311289" y="183.6" style="stroke: #000000; stroke-width: 0.8"/>
      </g>
     </g>
     <g id="text_28">
      <!-- $\it{Ae. aegypti}$ -->
      <g transform="translate(422.411289 198.2) scale(0.1 -0.1)">
       <use xlink:href="#DejaVuSans-Oblique-41" transform="translate(0 0.015625)"/>
       <use xlink:href="#DejaVuSans-Oblique-65" transform="translate(68.408203 0.015625)"/>
       <use xlink:href="#DejaVuSans-2e" transform="translate(129.931641 0.015625)"/>
       <use xlink:href="#DejaVuSans-Oblique-61" transform="translate(181.201172 0.015625)"/>
       <use xlink:href="#DejaVuSans-Oblique-65" transform="translate(242.480469 0.015625)"/>
       <use xlink:href="#DejaVuSans-Oblique-67" transform="translate(304.003906 0.015625)"/>
       <use xlink:href="#DejaVuSans-Oblique-79" transform="translate(367.480469 0.015625)"/>
       <use xlink:href="#DejaVuSans-Oblique-70" transform="translate(426.660156 0.015625)"/>
       <use xlink:href="#DejaVuSans-Oblique-74" transform="translate(490.136719 0.015625)"/>
       <use xlink:href="#DejaVuSans-Oblique-69" transform="translate(529.345703 0.015625)"/>
      </g>
     </g>
    </g>
    <g id="xtick_6">
     <g id="line2d_10">
      <g>
       <use xlink:href="#m6a356cfae8" x="524.279492" y="183.6" style="stroke: #000000; stroke-width: 0.8"/>
      </g>
     </g>
     <g id="text_29">
      <!-- $\it{Ae. albopictus}$ -->
      <g transform="translate(489.479492 198.2) scale(0.1 -0.1)">
       <use xlink:href="#DejaVuSans-Oblique-41" transform="translate(0 0.015625)"/>
       <use xlink:href="#DejaVuSans-Oblique-65" transform="translate(68.408203 0.015625)"/>
       <use xlink:href="#DejaVuSans-2e" transform="translate(129.931641 0.015625)"/>
       <use xlink:href="#DejaVuSans-Oblique-61" transform="translate(181.201172 0.015625)"/>
       <use xlink:href="#DejaVuSans-Oblique-6c" transform="translate(242.480469 0.015625)"/>
       <use xlink:href="#DejaVuSans-Oblique-62" transform="translate(270.263672 0.015625)"/>
       <use xlink:href="#DejaVuSans-Oblique-6f" transform="translate(333.740234 0.015625)"/>
       <use xlink:href="#DejaVuSans-Oblique-70" transform="translate(394.921875 0.015625)"/>
       <use xlink:href="#DejaVuSans-Oblique-69" transform="translate(458.398438 0.015625)"/>
       <use xlink:href="#DejaVuSans-Oblique-63" transform="translate(486.181641 0.015625)"/>
       <use xlink:href="#DejaVuSans-Oblique-74" transform="translate(541.162109 0.015625)"/>
       <use xlink:href="#DejaVuSans-Oblique-75" transform="translate(580.371094 0.015625)"/>
       <use xlink:href="#DejaVuSans-Oblique-73" transform="translate(643.75 0.015625)"/>
      </g>
     </g>
    </g>
    <g id="xtick_7">
     <g id="line2d_11">
      <g>
       <use xlink:href="#m6a356cfae8" x="598.247695" y="183.6" style="stroke: #000000; stroke-width: 0.8"/>
      </g>
     </g>
     <g id="text_30">
      <!-- $\it{Ae. japonicus}$ -->
      <g transform="translate(565.397695 198.2) scale(0.1 -0.1)">
       <use xlink:href="#DejaVuSans-Oblique-41" transform="translate(0 0.015625)"/>
       <use xlink:href="#DejaVuSans-Oblique-65" transform="translate(68.408203 0.015625)"/>
       <use xlink:href="#DejaVuSans-2e" transform="translate(129.931641 0.015625)"/>
       <use xlink:href="#DejaVuSans-Oblique-6a" transform="translate(181.201172 0.015625)"/>
       <use xlink:href="#DejaVuSans-Oblique-61" transform="translate(208.984375 0.015625)"/>
       <use xlink:href="#DejaVuSans-Oblique-70" transform="translate(270.263672 0.015625)"/>
       <use xlink:href="#DejaVuSans-Oblique-6f" transform="translate(333.740234 0.015625)"/>
       <use xlink:href="#DejaVuSans-Oblique-6e" transform="translate(394.921875 0.015625)"/>
       <use xlink:href="#DejaVuSans-Oblique-69" transform="translate(458.300781 0.015625)"/>
       <use xlink:href="#DejaVuSans-Oblique-63" transform="translate(486.083984 0.015625)"/>
       <use xlink:href="#DejaVuSans-Oblique-75" transform="translate(541.064453 0.015625)"/>
       <use xlink:href="#DejaVuSans-Oblique-73" transform="translate(604.443359 0.015625)"/>
      </g>
     </g>
    </g>
    <g id="xtick_8">
     <g id="line2d_12">
      <g>
       <use xlink:href="#m6a356cfae8" x="672.215898" y="183.6" style="stroke: #000000; stroke-width: 0.8"/>
      </g>
     </g>
     <g id="text_31">
      <!-- $\it{Ae. koreicus}$ -->
      <g transform="translate(642.115898 198.198438) scale(0.1 -0.1)">
       <use xlink:href="#DejaVuSans-Oblique-41" transform="translate(0 0.015625)"/>
       <use xlink:href="#DejaVuSans-Oblique-65" transform="translate(68.408203 0.015625)"/>
       <use xlink:href="#DejaVuSans-2e" transform="translate(129.931641 0.015625)"/>
       <use xlink:href="#DejaVuSans-Oblique-6b" transform="translate(181.201172 0.015625)"/>
       <use xlink:href="#DejaVuSans-Oblique-6f" transform="translate(239.111328 0.015625)"/>
       <use xlink:href="#DejaVuSans-Oblique-72" transform="translate(300.292969 0.015625)"/>
       <use xlink:href="#DejaVuSans-Oblique-65" transform="translate(341.40625 0.015625)"/>
       <use xlink:href="#DejaVuSans-Oblique-69" transform="translate(402.929688 0.015625)"/>
       <use xlink:href="#DejaVuSans-Oblique-63" transform="translate(430.712891 0.015625)"/>
       <use xlink:href="#DejaVuSans-Oblique-75" transform="translate(485.693359 0.015625)"/>
       <use xlink:href="#DejaVuSans-Oblique-73" transform="translate(549.072266 0.015625)"/>
      </g>
     </g>
    </g>
    <g id="text_32">
     <!-- Prediction -->
     <g transform="translate(536.426875 211.898438) scale(0.1 -0.1)">
      <use xlink:href="#DejaVuSans-50"/>
      <use xlink:href="#DejaVuSans-72" x="58.552734"/>
      <use xlink:href="#DejaVuSans-65" x="97.416016"/>
      <use xlink:href="#DejaVuSans-64" x="158.939453"/>
      <use xlink:href="#DejaVuSans-69" x="222.416016"/>
      <use xlink:href="#DejaVuSans-63" x="250.199219"/>
      <use xlink:href="#DejaVuSans-74" x="305.179688"/>
      <use xlink:href="#DejaVuSans-69" x="344.388672"/>
      <use xlink:href="#DejaVuSans-6f" x="372.171875"/>
      <use xlink:href="#DejaVuSans-6e" x="433.353516"/>
     </g>
    </g>
   </g>
   <g id="matplotlib.axis_4">
    <g id="ytick_5">
     <g id="line2d_13">
      <g>
       <use xlink:href="#m991daea3d2" x="413.327188" y="46.47" style="stroke: #000000; stroke-width: 0.8"/>
      </g>
     </g>
    </g>
    <g id="ytick_6">
     <g id="line2d_14">
      <g>
       <use xlink:href="#m991daea3d2" x="413.327188" y="85.65" style="stroke: #000000; stroke-width: 0.8"/>
      </g>
     </g>
    </g>
    <g id="ytick_7">
     <g id="line2d_15">
      <g>
       <use xlink:href="#m991daea3d2" x="413.327188" y="124.83" style="stroke: #000000; stroke-width: 0.8"/>
      </g>
     </g>
    </g>
    <g id="ytick_8">
     <g id="line2d_16">
      <g>
       <use xlink:href="#m991daea3d2" x="413.327188" y="164.01" style="stroke: #000000; stroke-width: 0.8"/>
      </g>
     </g>
    </g>
   </g>
   <g id="text_33">
    <!-- 85.8 -->
    <g style="fill: #ffffff" transform="translate(439.178477 49.229375) scale(0.1 -0.1)">
     <use xlink:href="#DejaVuSans-38"/>
     <use xlink:href="#DejaVuSans-35" x="63.623047"/>
     <use xlink:href="#DejaVuSans-2e" x="127.246094"/>
     <use xlink:href="#DejaVuSans-38" x="159.033203"/>
    </g>
   </g>
   <g id="text_34">
    <!-- 11.2 -->
    <g style="fill: #262626" transform="translate(513.14668 49.229375) scale(0.1 -0.1)">
     <use xlink:href="#DejaVuSans-31"/>
     <use xlink:href="#DejaVuSans-31" x="63.623047"/>
     <use xlink:href="#DejaVuSans-2e" x="127.246094"/>
     <use xlink:href="#DejaVuSans-32" x="159.033203"/>
    </g>
   </g>
   <g id="text_35">
    <!-- 0.0 -->
    <g style="fill: #262626" transform="translate(590.296133 49.229375) scale(0.1 -0.1)">
     <use xlink:href="#DejaVuSans-30"/>
     <use xlink:href="#DejaVuSans-2e" x="63.623047"/>
     <use xlink:href="#DejaVuSans-30" x="95.410156"/>
    </g>
   </g>
   <g id="text_36">
    <!-- 2.9 -->
    <g style="fill: #262626" transform="translate(664.264336 49.229375) scale(0.1 -0.1)">
     <use xlink:href="#DejaVuSans-32"/>
     <use xlink:href="#DejaVuSans-2e" x="63.623047"/>
     <use xlink:href="#DejaVuSans-39" x="95.410156"/>
    </g>
   </g>
   <g id="text_37">
    <!-- 20.0 -->
    <g style="fill: #262626" transform="translate(439.178477 88.409375) scale(0.1 -0.1)">
     <use xlink:href="#DejaVuSans-32"/>
     <use xlink:href="#DejaVuSans-30" x="63.623047"/>
     <use xlink:href="#DejaVuSans-2e" x="127.246094"/>
     <use xlink:href="#DejaVuSans-30" x="159.033203"/>
    </g>
   </g>
   <g id="text_38">
    <!-- 79.6 -->
    <g style="fill: #ffffff" transform="translate(513.14668 88.409375) scale(0.1 -0.1)">
     <use xlink:href="#DejaVuSans-37"/>
     <use xlink:href="#DejaVuSans-39" x="63.623047"/>
     <use xlink:href="#DejaVuSans-2e" x="127.246094"/>
     <use xlink:href="#DejaVuSans-36" x="159.033203"/>
    </g>
   </g>
   <g id="text_39">
    <!-- 0.0 -->
    <g style="fill: #262626" transform="translate(590.296133 88.409375) scale(0.1 -0.1)">
     <use xlink:href="#DejaVuSans-30"/>
     <use xlink:href="#DejaVuSans-2e" x="63.623047"/>
     <use xlink:href="#DejaVuSans-30" x="95.410156"/>
    </g>
   </g>
   <g id="text_40">
    <!-- 0.4 -->
    <g style="fill: #262626" transform="translate(664.264336 88.409375) scale(0.1 -0.1)">
     <use xlink:href="#DejaVuSans-30"/>
     <use xlink:href="#DejaVuSans-2e" x="63.623047"/>
     <use xlink:href="#DejaVuSans-34" x="95.410156"/>
    </g>
   </g>
   <g id="text_41">
    <!-- 0.0 -->
    <g style="fill: #262626" transform="translate(442.359727 127.589375) scale(0.1 -0.1)">
     <use xlink:href="#DejaVuSans-30"/>
     <use xlink:href="#DejaVuSans-2e" x="63.623047"/>
     <use xlink:href="#DejaVuSans-30" x="95.410156"/>
    </g>
   </g>
   <g id="text_42">
    <!-- 0.0 -->
    <g style="fill: #262626" transform="translate(516.32793 127.589375) scale(0.1 -0.1)">
     <use xlink:href="#DejaVuSans-30"/>
     <use xlink:href="#DejaVuSans-2e" x="63.623047"/>
     <use xlink:href="#DejaVuSans-30" x="95.410156"/>
    </g>
   </g>
   <g id="text_43">
    <!-- 87.5 -->
    <g style="fill: #ffffff" transform="translate(587.114883 127.589375) scale(0.1 -0.1)">
     <use xlink:href="#DejaVuSans-38"/>
     <use xlink:href="#DejaVuSans-37" x="63.623047"/>
     <use xlink:href="#DejaVuSans-2e" x="127.246094"/>
     <use xlink:href="#DejaVuSans-35" x="159.033203"/>
    </g>
   </g>
   <g id="text_44">
    <!-- 12.5 -->
    <g style="fill: #262626" transform="translate(661.083086 127.589375) scale(0.1 -0.1)">
     <use xlink:href="#DejaVuSans-31"/>
     <use xlink:href="#DejaVuSans-32" x="63.623047"/>
     <use xlink:href="#DejaVuSans-2e" x="127.246094"/>
     <use xlink:href="#DejaVuSans-35" x="159.033203"/>
    </g>
   </g>
   <g id="text_45">
    <!-- 0.4 -->
    <g style="fill: #262626" transform="translate(442.359727 166.769375) scale(0.1 -0.1)">
     <use xlink:href="#DejaVuSans-30"/>
     <use xlink:href="#DejaVuSans-2e" x="63.623047"/>
     <use xlink:href="#DejaVuSans-34" x="95.410156"/>
    </g>
   </g>
   <g id="text_46">
    <!-- 0.8 -->
    <g style="fill: #262626" transform="translate(516.32793 166.769375) scale(0.1 -0.1)">
     <use xlink:href="#DejaVuSans-30"/>
     <use xlink:href="#DejaVuSans-2e" x="63.623047"/>
     <use xlink:href="#DejaVuSans-38" x="95.410156"/>
    </g>
   </g>
   <g id="text_47">
    <!-- 1.2 -->
    <g style="fill: #262626" transform="translate(590.296133 166.769375) scale(0.1 -0.1)">
     <use xlink:href="#DejaVuSans-31"/>
     <use xlink:href="#DejaVuSans-2e" x="63.623047"/>
     <use xlink:href="#DejaVuSans-32" x="95.410156"/>
    </g>
   </g>
   <g id="text_48">
    <!-- 97.5 -->
    <g style="fill: #ffffff" transform="translate(661.083086 166.769375) scale(0.1 -0.1)">
     <use xlink:href="#DejaVuSans-39"/>
     <use xlink:href="#DejaVuSans-37" x="63.623047"/>
     <use xlink:href="#DejaVuSans-2e" x="127.246094"/>
     <use xlink:href="#DejaVuSans-35" x="159.033203"/>
    </g>
   </g>
   <g id="text_49">
    <!-- B -->
    <g transform="translate(557.147031 20.88) scale(0.12 -0.12)">
     <defs>
      <path id="DejaVuSans-42" d="M 1259 2228 
L 1259 519 
L 2272 519 
Q 2781 519 3026 730 
Q 3272 941 3272 1375 
Q 3272 1813 3026 2020 
Q 2781 2228 2272 2228 
L 1259 2228 
z
M 1259 4147 
L 1259 2741 
L 2194 2741 
Q 2656 2741 2882 2914 
Q 3109 3088 3109 3444 
Q 3109 3797 2882 3972 
Q 2656 4147 2194 4147 
L 1259 4147 
z
M 628 4666 
L 2241 4666 
Q 2963 4666 3353 4366 
Q 3744 4066 3744 3513 
Q 3744 3084 3544 2831 
Q 3344 2578 2956 2516 
Q 3422 2416 3680 2098 
Q 3938 1781 3938 1306 
Q 3938 681 3513 340 
Q 3088 0 2303 0 
L 628 0 
L 628 4666 
z
" transform="scale(0.015625)"/>
     </defs>
     <use xlink:href="#DejaVuSans-42"/>
    </g>
   </g>
  </g>
  <g id="axes_3">
   <g id="patch_4">
    <path d="M 103.154375 401.24 
L 399.027188 401.24 
L 399.027188 244.52 
L 103.154375 244.52 
z
" style="fill: #ffffff"/>
   </g>
   <g id="matplotlib.axis_5">
    <g id="xtick_9">
     <g id="line2d_17">
      <g>
       <use xlink:href="#m6a356cfae8" x="177.122578" y="401.24" style="stroke: #000000; stroke-width: 0.8"/>
      </g>
     </g>
     <g id="text_50">
      <!-- Body -->
      <g transform="translate(164.499141 415.838437) scale(0.1 -0.1)">
       <defs>
        <path id="DejaVuSans-79" d="M 2059 -325 
Q 1816 -950 1584 -1140 
Q 1353 -1331 966 -1331 
L 506 -1331 
L 506 -850 
L 844 -850 
Q 1081 -850 1212 -737 
Q 1344 -625 1503 -206 
L 1606 56 
L 191 3500 
L 800 3500 
L 1894 763 
L 2988 3500 
L 3597 3500 
L 2059 -325 
z
" transform="scale(0.015625)"/>
       </defs>
       <use xlink:href="#DejaVuSans-42"/>
       <use xlink:href="#DejaVuSans-6f" x="68.603516"/>
       <use xlink:href="#DejaVuSans-64" x="129.785156"/>
       <use xlink:href="#DejaVuSans-79" x="193.261719"/>
      </g>
     </g>
    </g>
    <g id="xtick_10">
     <g id="line2d_18">
      <g>
       <use xlink:href="#m6a356cfae8" x="325.058984" y="401.24" style="stroke: #000000; stroke-width: 0.8"/>
      </g>
     </g>
     <g id="text_51">
      <!-- Wing -->
      <g transform="translate(312.495703 415.838437) scale(0.1 -0.1)">
       <defs>
        <path id="DejaVuSans-57" d="M 213 4666 
L 850 4666 
L 1831 722 
L 2809 4666 
L 3519 4666 
L 4500 722 
L 5478 4666 
L 6119 4666 
L 4947 0 
L 4153 0 
L 3169 4050 
L 2175 0 
L 1381 0 
L 213 4666 
z
" transform="scale(0.015625)"/>
        <path id="DejaVuSans-67" d="M 2906 1791 
Q 2906 2416 2648 2759 
Q 2391 3103 1925 3103 
Q 1463 3103 1205 2759 
Q 947 2416 947 1791 
Q 947 1169 1205 825 
Q 1463 481 1925 481 
Q 2391 481 2648 825 
Q 2906 1169 2906 1791 
z
M 3481 434 
Q 3481 -459 3084 -895 
Q 2688 -1331 1869 -1331 
Q 1566 -1331 1297 -1286 
Q 1028 -1241 775 -1147 
L 775 -588 
Q 1028 -725 1275 -790 
Q 1522 -856 1778 -856 
Q 2344 -856 2625 -561 
Q 2906 -266 2906 331 
L 2906 616 
Q 2728 306 2450 153 
Q 2172 0 1784 0 
Q 1141 0 747 490 
Q 353 981 353 1791 
Q 353 2603 747 3093 
Q 1141 3584 1784 3584 
Q 2172 3584 2450 3431 
Q 2728 3278 2906 2969 
L 2906 3500 
L 3481 3500 
L 3481 434 
z
" transform="scale(0.015625)"/>
       </defs>
       <use xlink:href="#DejaVuSans-57"/>
       <use xlink:href="#DejaVuSans-69" x="96.626953"/>
       <use xlink:href="#DejaVuSans-6e" x="124.410156"/>
       <use xlink:href="#DejaVuSans-67" x="187.789062"/>
      </g>
     </g>
    </g>
   </g>
   <g id="matplotlib.axis_6">
    <g id="ytick_9">
     <g id="line2d_19">
      <path d="M 103.154375 391.148182 
L 399.027188 391.148182 
" clip-path="url(#p4fcfe58aa2)" style="fill: none; stroke: #b0b0b0; stroke-width: 0.8; stroke-linecap: square"/>
     </g>
     <g id="line2d_20">
      <g>
       <use xlink:href="#m991daea3d2" x="103.154375" y="391.148182" style="stroke: #000000; stroke-width: 0.8"/>
      </g>
     </g>
     <g id="text_52">
      <!-- 0.6 -->
      <g transform="translate(80.25125 394.947401) scale(0.1 -0.1)">
       <use xlink:href="#DejaVuSans-30"/>
       <use xlink:href="#DejaVuSans-2e" x="63.623047"/>
       <use xlink:href="#DejaVuSans-36" x="95.410156"/>
      </g>
     </g>
    </g>
    <g id="ytick_10">
     <g id="line2d_21">
      <path d="M 103.154375 355.53 
L 399.027188 355.53 
" clip-path="url(#p4fcfe58aa2)" style="fill: none; stroke: #b0b0b0; stroke-width: 0.8; stroke-linecap: square"/>
     </g>
     <g id="line2d_22">
      <g>
       <use xlink:href="#m991daea3d2" x="103.154375" y="355.53" style="stroke: #000000; stroke-width: 0.8"/>
      </g>
     </g>
     <g id="text_53">
      <!-- 0.7 -->
      <g transform="translate(80.25125 359.329219) scale(0.1 -0.1)">
       <use xlink:href="#DejaVuSans-30"/>
       <use xlink:href="#DejaVuSans-2e" x="63.623047"/>
       <use xlink:href="#DejaVuSans-37" x="95.410156"/>
      </g>
     </g>
    </g>
    <g id="ytick_11">
     <g id="line2d_23">
      <path d="M 103.154375 319.911818 
L 399.027188 319.911818 
" clip-path="url(#p4fcfe58aa2)" style="fill: none; stroke: #b0b0b0; stroke-width: 0.8; stroke-linecap: square"/>
     </g>
     <g id="line2d_24">
      <g>
       <use xlink:href="#m991daea3d2" x="103.154375" y="319.911818" style="stroke: #000000; stroke-width: 0.8"/>
      </g>
     </g>
     <g id="text_54">
      <!-- 0.8 -->
      <g transform="translate(80.25125 323.711037) scale(0.1 -0.1)">
       <use xlink:href="#DejaVuSans-30"/>
       <use xlink:href="#DejaVuSans-2e" x="63.623047"/>
       <use xlink:href="#DejaVuSans-38" x="95.410156"/>
      </g>
     </g>
    </g>
    <g id="ytick_12">
     <g id="line2d_25">
      <path d="M 103.154375 284.293636 
L 399.027188 284.293636 
" clip-path="url(#p4fcfe58aa2)" style="fill: none; stroke: #b0b0b0; stroke-width: 0.8; stroke-linecap: square"/>
     </g>
     <g id="line2d_26">
      <g>
       <use xlink:href="#m991daea3d2" x="103.154375" y="284.293636" style="stroke: #000000; stroke-width: 0.8"/>
      </g>
     </g>
     <g id="text_55">
      <!-- 0.9 -->
      <g transform="translate(80.25125 288.092855) scale(0.1 -0.1)">
       <use xlink:href="#DejaVuSans-30"/>
       <use xlink:href="#DejaVuSans-2e" x="63.623047"/>
       <use xlink:href="#DejaVuSans-39" x="95.410156"/>
      </g>
     </g>
    </g>
    <g id="ytick_13">
     <g id="line2d_27">
      <path d="M 103.154375 248.675455 
L 399.027188 248.675455 
" clip-path="url(#p4fcfe58aa2)" style="fill: none; stroke: #b0b0b0; stroke-width: 0.8; stroke-linecap: square"/>
     </g>
     <g id="line2d_28">
      <g>
       <use xlink:href="#m991daea3d2" x="103.154375" y="248.675455" style="stroke: #000000; stroke-width: 0.8"/>
      </g>
     </g>
     <g id="text_56">
      <!-- 1.0 -->
      <g transform="translate(80.25125 252.474673) scale(0.1 -0.1)">
       <use xlink:href="#DejaVuSans-31"/>
       <use xlink:href="#DejaVuSans-2e" x="63.623047"/>
       <use xlink:href="#DejaVuSans-30" x="95.410156"/>
      </g>
     </g>
    </g>
    <g id="text_57">
     <!-- Accuracy [%] -->
     <g transform="translate(74.171563 355.949531) rotate(-90) scale(0.1 -0.1)">
      <defs>
       <path id="DejaVuSans-61" d="M 2194 1759 
Q 1497 1759 1228 1600 
Q 959 1441 959 1056 
Q 959 750 1161 570 
Q 1363 391 1709 391 
Q 2188 391 2477 730 
Q 2766 1069 2766 1631 
L 2766 1759 
L 2194 1759 
z
M 3341 1997 
L 3341 0 
L 2766 0 
L 2766 531 
Q 2569 213 2275 61 
Q 1981 -91 1556 -91 
Q 1019 -91 701 211 
Q 384 513 384 1019 
Q 384 1609 779 1909 
Q 1175 2209 1959 2209 
L 2766 2209 
L 2766 2266 
Q 2766 2663 2505 2880 
Q 2244 3097 1772 3097 
Q 1472 3097 1187 3025 
Q 903 2953 641 2809 
L 641 3341 
Q 956 3463 1253 3523 
Q 1550 3584 1831 3584 
Q 2591 3584 2966 3190 
Q 3341 2797 3341 1997 
z
" transform="scale(0.015625)"/>
       <path id="DejaVuSans-20" transform="scale(0.015625)"/>
       <path id="DejaVuSans-5b" d="M 550 4863 
L 1875 4863 
L 1875 4416 
L 1125 4416 
L 1125 -397 
L 1875 -397 
L 1875 -844 
L 550 -844 
L 550 4863 
z
" transform="scale(0.015625)"/>
       <path id="DejaVuSans-25" d="M 4653 2053 
Q 4381 2053 4226 1822 
Q 4072 1591 4072 1178 
Q 4072 772 4226 539 
Q 4381 306 4653 306 
Q 4919 306 5073 539 
Q 5228 772 5228 1178 
Q 5228 1588 5073 1820 
Q 4919 2053 4653 2053 
z
M 4653 2450 
Q 5147 2450 5437 2106 
Q 5728 1763 5728 1178 
Q 5728 594 5436 251 
Q 5144 -91 4653 -91 
Q 4153 -91 3862 251 
Q 3572 594 3572 1178 
Q 3572 1766 3864 2108 
Q 4156 2450 4653 2450 
z
M 1428 4353 
Q 1159 4353 1004 4120 
Q 850 3888 850 3481 
Q 850 3069 1003 2837 
Q 1156 2606 1428 2606 
Q 1700 2606 1854 2837 
Q 2009 3069 2009 3481 
Q 2009 3884 1853 4118 
Q 1697 4353 1428 4353 
z
M 4250 4750 
L 4750 4750 
L 1831 -91 
L 1331 -91 
L 4250 4750 
z
M 1428 4750 
Q 1922 4750 2215 4408 
Q 2509 4066 2509 3481 
Q 2509 2891 2217 2550 
Q 1925 2209 1428 2209 
Q 931 2209 642 2551 
Q 353 2894 353 3481 
Q 353 4063 643 4406 
Q 934 4750 1428 4750 
z
" transform="scale(0.015625)"/>
       <path id="DejaVuSans-5d" d="M 1947 4863 
L 1947 -844 
L 622 -844 
L 622 -397 
L 1369 -397 
L 1369 4416 
L 622 4416 
L 622 4863 
L 1947 4863 
z
" transform="scale(0.015625)"/>
      </defs>
      <use xlink:href="#DejaVuSans-41"/>
      <use xlink:href="#DejaVuSans-63" x="66.658203"/>
      <use xlink:href="#DejaVuSans-63" x="121.638672"/>
      <use xlink:href="#DejaVuSans-75" x="176.619141"/>
      <use xlink:href="#DejaVuSans-72" x="239.998047"/>
      <use xlink:href="#DejaVuSans-61" x="281.111328"/>
      <use xlink:href="#DejaVuSans-63" x="342.390625"/>
      <use xlink:href="#DejaVuSans-79" x="397.371094"/>
      <use xlink:href="#DejaVuSans-20" x="456.550781"/>
      <use xlink:href="#DejaVuSans-5b" x="488.337891"/>
      <use xlink:href="#DejaVuSans-25" x="527.351562"/>
      <use xlink:href="#DejaVuSans-5d" x="622.371094"/>
     </g>
    </g>
   </g>
   <g id="line2d_29">
    <defs>
     <path id="m1fafba01db" d="M -0 4.242641 
L 4.242641 0 
L 0 -4.242641 
L -4.242641 -0 
z
" style="stroke: #abd0e6; stroke-width: 0.9375; stroke-linejoin: miter"/>
    </defs>
    <g clip-path="url(#p4fcfe58aa2)">
     <use xlink:href="#m1fafba01db" x="173.424168" y="316.943636" style="fill: #abd0e6; stroke: #abd0e6; stroke-width: 0.9375; stroke-linejoin: miter"/>
    </g>
   </g>
   <g id="line2d_30">
    <path d="M 166.027348 331.0425 
L 180.820988 331.0425 
M 173.424168 331.0425 
L 173.424168 305.070909 
M 166.027348 305.070909 
L 180.820988 305.070909 
" clip-path="url(#p4fcfe58aa2)" style="fill: none; stroke: #abd0e6; stroke-width: 1.25; stroke-linecap: square"/>
   </g>
   <g id="line2d_31">
    <defs>
     <path id="mdf69cc7739" d="M 0 3 
C 0.795609 3 1.55874 2.683901 2.12132 2.12132 
C 2.683901 1.55874 3 0.795609 3 0 
C 3 -0.795609 2.683901 -1.55874 2.12132 -2.12132 
C 1.55874 -2.683901 0.795609 -3 0 -3 
C -0.795609 -3 -1.55874 -2.683901 -2.12132 -2.12132 
C -2.683901 -1.55874 -3 -0.795609 -3 0 
C -3 0.795609 -2.683901 1.55874 -2.12132 2.12132 
C -1.55874 2.683901 -0.795609 3 0 3 
z
" style="stroke: #3787c0; stroke-width: 0.9375"/>
    </defs>
    <g clip-path="url(#p4fcfe58aa2)">
     <use xlink:href="#mdf69cc7739" x="180.820988" y="331.0425" style="fill: #3787c0; stroke: #3787c0; stroke-width: 0.9375"/>
    </g>
   </g>
   <g id="line2d_32">
    <path d="M 173.424168 345.141364 
L 188.217809 345.141364 
M 180.820988 345.141364 
L 180.820988 317.685682 
M 173.424168 317.685682 
L 188.217809 317.685682 
" clip-path="url(#p4fcfe58aa2)" style="fill: none; stroke: #3787c0; stroke-width: 1.25; stroke-linecap: square"/>
   </g>
   <g id="line2d_33"/>
   <g id="line2d_34"/>
   <g id="line2d_35">
    <defs>
     <path id="m0a886bc1b9" d="M -0 4.242641 
L 4.242641 0 
L 0 -4.242641 
L -4.242641 -0 
z
" style="stroke: #aedea7; stroke-width: 0.9375; stroke-linejoin: miter"/>
    </defs>
    <g clip-path="url(#p4fcfe58aa2)">
     <use xlink:href="#m0a886bc1b9" x="321.360574" y="288.745909" style="fill: #aedea7; stroke: #aedea7; stroke-width: 0.9375; stroke-linejoin: miter"/>
    </g>
   </g>
   <g id="line2d_36">
    <path d="M 313.963754 299.134545 
L 328.757395 299.134545 
M 321.360574 299.134545 
L 321.360574 278.338722 
M 313.963754 278.338722 
L 328.757395 278.338722 
" clip-path="url(#p4fcfe58aa2)" style="fill: none; stroke: #aedea7; stroke-width: 1.25; stroke-linecap: square"/>
   </g>
   <g id="line2d_37">
    <defs>
     <path id="m62b14224b5" d="M 0 3 
C 0.795609 3 1.55874 2.683901 2.12132 2.12132 
C 2.683901 1.55874 3 0.795609 3 0 
C 3 -0.795609 2.683901 -1.55874 2.12132 -2.12132 
C 1.55874 -2.683901 0.795609 -3 0 -3 
C -0.795609 -3 -1.55874 -2.683901 -2.12132 -2.12132 
C -2.683901 -1.55874 -3 -0.795609 -3 0 
C -3 0.795609 -2.683901 1.55874 -2.12132 2.12132 
C -1.55874 2.683901 -0.795609 3 0 3 
z
" style="stroke: #37a055; stroke-width: 0.9375"/>
    </defs>
    <g clip-path="url(#p4fcfe58aa2)">
     <use xlink:href="#m62b14224b5" x="328.757395" y="296.908409" style="fill: #37a055; stroke: #37a055; stroke-width: 0.9375"/>
    </g>
   </g>
   <g id="line2d_38">
    <path d="M 321.360574 308.039091 
L 336.154215 308.039091 
M 328.757395 308.039091 
L 328.757395 286.519773 
M 321.360574 286.519773 
L 336.154215 286.519773 
" clip-path="url(#p4fcfe58aa2)" style="fill: none; stroke: #37a055; stroke-width: 1.25; stroke-linecap: square"/>
   </g>
   <g id="line2d_39"/>
   <g id="line2d_40"/>
   <g id="patch_5">
    <path d="M 103.154375 401.24 
L 103.154375 244.52 
" style="fill: none; stroke: #000000; stroke-width: 0.8; stroke-linejoin: miter; stroke-linecap: square"/>
   </g>
   <g id="patch_6">
    <path d="M 399.027188 401.24 
L 399.027188 244.52 
" style="fill: none; stroke: #000000; stroke-width: 0.8; stroke-linejoin: miter; stroke-linecap: square"/>
   </g>
   <g id="patch_7">
    <path d="M 103.154375 401.24 
L 399.027188 401.24 
" style="fill: none; stroke: #000000; stroke-width: 0.8; stroke-linejoin: miter; stroke-linecap: square"/>
   </g>
   <g id="patch_8">
    <path d="M 103.154375 244.52 
L 399.027188 244.52 
" style="fill: none; stroke: #000000; stroke-width: 0.8; stroke-linejoin: miter; stroke-linecap: square"/>
   </g>
   <g id="text_58">
    <!-- C -->
    <g transform="translate(246.901094 238.52) scale(0.12 -0.12)">
     <defs>
      <path id="DejaVuSans-43" d="M 4122 4306 
L 4122 3641 
Q 3803 3938 3442 4084 
Q 3081 4231 2675 4231 
Q 1875 4231 1450 3742 
Q 1025 3253 1025 2328 
Q 1025 1406 1450 917 
Q 1875 428 2675 428 
Q 3081 428 3442 575 
Q 3803 722 4122 1019 
L 4122 359 
Q 3791 134 3420 21 
Q 3050 -91 2638 -91 
Q 1578 -91 968 557 
Q 359 1206 359 2328 
Q 359 3453 968 4101 
Q 1578 4750 2638 4750 
Q 3056 4750 3426 4639 
Q 3797 4528 4122 4306 
z
" transform="scale(0.015625)"/>
     </defs>
     <use xlink:href="#DejaVuSans-43"/>
    </g>
   </g>
   <g id="legend_1">
    <g id="patch_9">
     <path d="M 251.508438 396.24 
L 392.027188 396.24 
Q 394.027188 396.24 394.027188 394.24 
L 394.027188 351.205625 
Q 394.027188 349.205625 392.027188 349.205625 
L 251.508438 349.205625 
Q 249.508438 349.205625 249.508438 351.205625 
L 249.508438 394.24 
Q 249.508438 396.24 251.508438 396.24 
z
" style="fill: #ffffff; opacity: 0.8; stroke: #cccccc; stroke-linejoin: miter"/>
    </g>
    <g id="text_59">
     <!-- Device -->
     <g transform="translate(304.667031 360.804062) scale(0.1 -0.1)">
      <defs>
       <path id="DejaVuSans-44" d="M 1259 4147 
L 1259 519 
L 2022 519 
Q 2988 519 3436 956 
Q 3884 1394 3884 2338 
Q 3884 3275 3436 3711 
Q 2988 4147 2022 4147 
L 1259 4147 
z
M 628 4666 
L 1925 4666 
Q 3281 4666 3915 4102 
Q 4550 3538 4550 2338 
Q 4550 1131 3912 565 
Q 3275 0 1925 0 
L 628 0 
L 628 4666 
z
" transform="scale(0.015625)"/>
       <path id="DejaVuSans-76" d="M 191 3500 
L 800 3500 
L 1894 563 
L 2988 3500 
L 3597 3500 
L 2284 0 
L 1503 0 
L 191 3500 
z
" transform="scale(0.015625)"/>
      </defs>
      <use xlink:href="#DejaVuSans-44"/>
      <use xlink:href="#DejaVuSans-65" x="77.001953"/>
      <use xlink:href="#DejaVuSans-76" x="138.525391"/>
      <use xlink:href="#DejaVuSans-69" x="197.705078"/>
      <use xlink:href="#DejaVuSans-63" x="225.488281"/>
      <use xlink:href="#DejaVuSans-65" x="280.46875"/>
     </g>
    </g>
    <g id="line2d_41">
     <g>
      <use xlink:href="#m1fafba01db" x="263.508438" y="371.982188" style="fill: #abd0e6; stroke: #abd0e6; stroke-width: 0.9375; stroke-linejoin: miter"/>
     </g>
    </g>
    <g id="text_60">
     <!-- Macro -->
     <g transform="translate(281.508438 375.482188) scale(0.1 -0.1)">
      <defs>
       <path id="DejaVuSans-4d" d="M 628 4666 
L 1569 4666 
L 2759 1491 
L 3956 4666 
L 4897 4666 
L 4897 0 
L 4281 0 
L 4281 4097 
L 3078 897 
L 2444 897 
L 1241 4097 
L 1241 0 
L 628 0 
L 628 4666 
z
" transform="scale(0.015625)"/>
      </defs>
      <use xlink:href="#DejaVuSans-4d"/>
      <use xlink:href="#DejaVuSans-61" x="86.279297"/>
      <use xlink:href="#DejaVuSans-63" x="147.558594"/>
      <use xlink:href="#DejaVuSans-72" x="202.539062"/>
      <use xlink:href="#DejaVuSans-6f" x="241.402344"/>
     </g>
    </g>
    <g id="line2d_42">
     <g>
      <use xlink:href="#mdf69cc7739" x="263.508438" y="386.660313" style="fill: #3787c0; stroke: #3787c0; stroke-width: 0.9375"/>
     </g>
    </g>
    <g id="text_61">
     <!-- Micro -->
     <g transform="translate(281.508438 390.160313) scale(0.1 -0.1)">
      <use xlink:href="#DejaVuSans-4d"/>
      <use xlink:href="#DejaVuSans-69" x="86.279297"/>
      <use xlink:href="#DejaVuSans-63" x="114.0625"/>
      <use xlink:href="#DejaVuSans-72" x="169.042969"/>
      <use xlink:href="#DejaVuSans-6f" x="207.90625"/>
     </g>
    </g>
    <g id="line2d_43">
     <g>
      <use xlink:href="#m0a886bc1b9" x="341.767812" y="371.982188" style="fill: #aedea7; stroke: #aedea7; stroke-width: 0.9375; stroke-linejoin: miter"/>
     </g>
    </g>
    <g id="text_62">
     <!-- Macro -->
     <g transform="translate(359.767812 375.482188) scale(0.1 -0.1)">
      <use xlink:href="#DejaVuSans-4d"/>
      <use xlink:href="#DejaVuSans-61" x="86.279297"/>
      <use xlink:href="#DejaVuSans-63" x="147.558594"/>
      <use xlink:href="#DejaVuSans-72" x="202.539062"/>
      <use xlink:href="#DejaVuSans-6f" x="241.402344"/>
     </g>
    </g>
    <g id="line2d_44">
     <g>
      <use xlink:href="#m62b14224b5" x="341.767812" y="386.660313" style="fill: #37a055; stroke: #37a055; stroke-width: 0.9375"/>
     </g>
    </g>
    <g id="text_63">
     <!-- Micro -->
     <g transform="translate(359.767812 390.160313) scale(0.1 -0.1)">
      <use xlink:href="#DejaVuSans-4d"/>
      <use xlink:href="#DejaVuSans-69" x="86.279297"/>
      <use xlink:href="#DejaVuSans-63" x="114.0625"/>
      <use xlink:href="#DejaVuSans-72" x="169.042969"/>
      <use xlink:href="#DejaVuSans-6f" x="207.90625"/>
     </g>
    </g>
   </g>
  </g>
  <g id="axes_4">
   <g id="patch_10">
    <path d="M 413.327188 401.24 
L 709.2 401.24 
L 709.2 244.52 
L 413.327188 244.52 
z
" style="fill: #ffffff"/>
   </g>
   <g id="matplotlib.axis_7">
    <g id="xtick_11">
     <g id="line2d_45">
      <g>
       <use xlink:href="#m6a356cfae8" x="450.311289" y="401.24" style="stroke: #000000; stroke-width: 0.8"/>
      </g>
     </g>
     <g id="text_64">
      <!-- $\it{Ae. aegypti}$ -->
      <g transform="translate(422.411289 415.84) scale(0.1 -0.1)">
       <use xlink:href="#DejaVuSans-Oblique-41" transform="translate(0 0.015625)"/>
       <use xlink:href="#DejaVuSans-Oblique-65" transform="translate(68.408203 0.015625)"/>
       <use xlink:href="#DejaVuSans-2e" transform="translate(129.931641 0.015625)"/>
       <use xlink:href="#DejaVuSans-Oblique-61" transform="translate(181.201172 0.015625)"/>
       <use xlink:href="#DejaVuSans-Oblique-65" transform="translate(242.480469 0.015625)"/>
       <use xlink:href="#DejaVuSans-Oblique-67" transform="translate(304.003906 0.015625)"/>
       <use xlink:href="#DejaVuSans-Oblique-79" transform="translate(367.480469 0.015625)"/>
       <use xlink:href="#DejaVuSans-Oblique-70" transform="translate(426.660156 0.015625)"/>
       <use xlink:href="#DejaVuSans-Oblique-74" transform="translate(490.136719 0.015625)"/>
       <use xlink:href="#DejaVuSans-Oblique-69" transform="translate(529.345703 0.015625)"/>
      </g>
     </g>
    </g>
    <g id="xtick_12">
     <g id="line2d_46">
      <g>
       <use xlink:href="#m6a356cfae8" x="524.279492" y="401.24" style="stroke: #000000; stroke-width: 0.8"/>
      </g>
     </g>
     <g id="text_65">
      <!-- $\it{Ae. albopictus}$ -->
      <g transform="translate(489.479492 415.84) scale(0.1 -0.1)">
       <use xlink:href="#DejaVuSans-Oblique-41" transform="translate(0 0.015625)"/>
       <use xlink:href="#DejaVuSans-Oblique-65" transform="translate(68.408203 0.015625)"/>
       <use xlink:href="#DejaVuSans-2e" transform="translate(129.931641 0.015625)"/>
       <use xlink:href="#DejaVuSans-Oblique-61" transform="translate(181.201172 0.015625)"/>
       <use xlink:href="#DejaVuSans-Oblique-6c" transform="translate(242.480469 0.015625)"/>
       <use xlink:href="#DejaVuSans-Oblique-62" transform="translate(270.263672 0.015625)"/>
       <use xlink:href="#DejaVuSans-Oblique-6f" transform="translate(333.740234 0.015625)"/>
       <use xlink:href="#DejaVuSans-Oblique-70" transform="translate(394.921875 0.015625)"/>
       <use xlink:href="#DejaVuSans-Oblique-69" transform="translate(458.398438 0.015625)"/>
       <use xlink:href="#DejaVuSans-Oblique-63" transform="translate(486.181641 0.015625)"/>
       <use xlink:href="#DejaVuSans-Oblique-74" transform="translate(541.162109 0.015625)"/>
       <use xlink:href="#DejaVuSans-Oblique-75" transform="translate(580.371094 0.015625)"/>
       <use xlink:href="#DejaVuSans-Oblique-73" transform="translate(643.75 0.015625)"/>
      </g>
     </g>
    </g>
    <g id="xtick_13">
     <g id="line2d_47">
      <g>
       <use xlink:href="#m6a356cfae8" x="598.247695" y="401.24" style="stroke: #000000; stroke-width: 0.8"/>
      </g>
     </g>
     <g id="text_66">
      <!-- $\it{Ae. japonicus}$ -->
      <g transform="translate(565.397695 415.84) scale(0.1 -0.1)">
       <use xlink:href="#DejaVuSans-Oblique-41" transform="translate(0 0.015625)"/>
       <use xlink:href="#DejaVuSans-Oblique-65" transform="translate(68.408203 0.015625)"/>
       <use xlink:href="#DejaVuSans-2e" transform="translate(129.931641 0.015625)"/>
       <use xlink:href="#DejaVuSans-Oblique-6a" transform="translate(181.201172 0.015625)"/>
       <use xlink:href="#DejaVuSans-Oblique-61" transform="translate(208.984375 0.015625)"/>
       <use xlink:href="#DejaVuSans-Oblique-70" transform="translate(270.263672 0.015625)"/>
       <use xlink:href="#DejaVuSans-Oblique-6f" transform="translate(333.740234 0.015625)"/>
       <use xlink:href="#DejaVuSans-Oblique-6e" transform="translate(394.921875 0.015625)"/>
       <use xlink:href="#DejaVuSans-Oblique-69" transform="translate(458.300781 0.015625)"/>
       <use xlink:href="#DejaVuSans-Oblique-63" transform="translate(486.083984 0.015625)"/>
       <use xlink:href="#DejaVuSans-Oblique-75" transform="translate(541.064453 0.015625)"/>
       <use xlink:href="#DejaVuSans-Oblique-73" transform="translate(604.443359 0.015625)"/>
      </g>
     </g>
    </g>
    <g id="xtick_14">
     <g id="line2d_48">
      <g>
       <use xlink:href="#m6a356cfae8" x="672.215898" y="401.24" style="stroke: #000000; stroke-width: 0.8"/>
      </g>
     </g>
     <g id="text_67">
      <!-- $\it{Ae. koreicus}$ -->
      <g transform="translate(642.115898 415.838437) scale(0.1 -0.1)">
       <use xlink:href="#DejaVuSans-Oblique-41" transform="translate(0 0.015625)"/>
       <use xlink:href="#DejaVuSans-Oblique-65" transform="translate(68.408203 0.015625)"/>
       <use xlink:href="#DejaVuSans-2e" transform="translate(129.931641 0.015625)"/>
       <use xlink:href="#DejaVuSans-Oblique-6b" transform="translate(181.201172 0.015625)"/>
       <use xlink:href="#DejaVuSans-Oblique-6f" transform="translate(239.111328 0.015625)"/>
       <use xlink:href="#DejaVuSans-Oblique-72" transform="translate(300.292969 0.015625)"/>
       <use xlink:href="#DejaVuSans-Oblique-65" transform="translate(341.40625 0.015625)"/>
       <use xlink:href="#DejaVuSans-Oblique-69" transform="translate(402.929688 0.015625)"/>
       <use xlink:href="#DejaVuSans-Oblique-63" transform="translate(430.712891 0.015625)"/>
       <use xlink:href="#DejaVuSans-Oblique-75" transform="translate(485.693359 0.015625)"/>
       <use xlink:href="#DejaVuSans-Oblique-73" transform="translate(549.072266 0.015625)"/>
      </g>
     </g>
    </g>
   </g>
   <g id="matplotlib.axis_8">
    <g id="ytick_14">
     <g id="line2d_49">
      <path d="M 413.327188 391.148182 
L 709.2 391.148182 
" clip-path="url(#p6ec46a51cb)" style="fill: none; stroke: #b0b0b0; stroke-width: 0.8; stroke-linecap: square"/>
     </g>
     <g id="line2d_50">
      <g>
       <use xlink:href="#m991daea3d2" x="413.327188" y="391.148182" style="stroke: #000000; stroke-width: 0.8"/>
      </g>
     </g>
    </g>
    <g id="ytick_15">
     <g id="line2d_51">
      <path d="M 413.327188 355.53 
L 709.2 355.53 
" clip-path="url(#p6ec46a51cb)" style="fill: none; stroke: #b0b0b0; stroke-width: 0.8; stroke-linecap: square"/>
     </g>
     <g id="line2d_52">
      <g>
       <use xlink:href="#m991daea3d2" x="413.327188" y="355.53" style="stroke: #000000; stroke-width: 0.8"/>
      </g>
     </g>
    </g>
    <g id="ytick_16">
     <g id="line2d_53">
      <path d="M 413.327188 319.911818 
L 709.2 319.911818 
" clip-path="url(#p6ec46a51cb)" style="fill: none; stroke: #b0b0b0; stroke-width: 0.8; stroke-linecap: square"/>
     </g>
     <g id="line2d_54">
      <g>
       <use xlink:href="#m991daea3d2" x="413.327188" y="319.911818" style="stroke: #000000; stroke-width: 0.8"/>
      </g>
     </g>
    </g>
    <g id="ytick_17">
     <g id="line2d_55">
      <path d="M 413.327188 284.293636 
L 709.2 284.293636 
" clip-path="url(#p6ec46a51cb)" style="fill: none; stroke: #b0b0b0; stroke-width: 0.8; stroke-linecap: square"/>
     </g>
     <g id="line2d_56">
      <g>
       <use xlink:href="#m991daea3d2" x="413.327188" y="284.293636" style="stroke: #000000; stroke-width: 0.8"/>
      </g>
     </g>
    </g>
    <g id="ytick_18">
     <g id="line2d_57">
      <path d="M 413.327188 248.675455 
L 709.2 248.675455 
" clip-path="url(#p6ec46a51cb)" style="fill: none; stroke: #b0b0b0; stroke-width: 0.8; stroke-linecap: square"/>
     </g>
     <g id="line2d_58">
      <g>
       <use xlink:href="#m991daea3d2" x="413.327188" y="248.675455" style="stroke: #000000; stroke-width: 0.8"/>
      </g>
     </g>
    </g>
   </g>
   <g id="line2d_59">
    <defs>
     <path id="mfaa5ec2038" d="M -3 3 
L 3 -3 
M -3 -3 
L 3 3 
" style="stroke: #8fbc8f; stroke-width: 0.9375"/>
    </defs>
    <g clip-path="url(#p6ec46a51cb)">
     <use xlink:href="#mfaa5ec2038" x="448.462084" y="299.134545" style="fill: #8fbc8f; stroke: #8fbc8f; stroke-width: 0.9375"/>
     <use xlink:href="#mfaa5ec2038" x="522.430287" y="321.395909" style="fill: #8fbc8f; stroke: #8fbc8f; stroke-width: 0.9375"/>
     <use xlink:href="#mfaa5ec2038" x="596.39849" y="293.198182" style="fill: #8fbc8f; stroke: #8fbc8f; stroke-width: 0.9375"/>
     <use xlink:href="#mfaa5ec2038" x="670.366693" y="257.58" style="fill: #8fbc8f; stroke: #8fbc8f; stroke-width: 0.9375"/>
    </g>
   </g>
   <g id="line2d_60">
    <path d="M 444.763674 316.943636 
L 452.160494 316.943636 
M 448.462084 316.943636 
L 448.462084 284.293636 
M 444.763674 284.293636 
L 452.160494 284.293636 
" clip-path="url(#p6ec46a51cb)" style="fill: none; stroke: #8fbc8f; stroke-width: 1.25; stroke-linecap: square"/>
   </g>
   <g id="line2d_61">
    <path d="M 518.731877 340.689091 
L 526.128697 340.689091 
M 522.430287 340.689091 
L 522.430287 303.586818 
M 518.731877 303.586818 
L 526.128697 303.586818 
" clip-path="url(#p6ec46a51cb)" style="fill: none; stroke: #8fbc8f; stroke-width: 1.25; stroke-linecap: square"/>
   </g>
   <g id="line2d_62">
    <path d="M 592.70008 309.523182 
L 600.0969 309.523182 
M 596.39849 309.523182 
L 596.39849 279.804261 
M 592.70008 279.804261 
L 600.0969 279.804261 
" clip-path="url(#p6ec46a51cb)" style="fill: none; stroke: #8fbc8f; stroke-width: 1.25; stroke-linecap: square"/>
   </g>
   <g id="line2d_63">
    <path d="M 666.668283 265.000455 
L 674.065104 265.000455 
M 670.366693 265.000455 
L 670.366693 251.643636 
M 666.668283 251.643636 
L 674.065104 251.643636 
" clip-path="url(#p6ec46a51cb)" style="fill: none; stroke: #8fbc8f; stroke-width: 1.25; stroke-linecap: square"/>
   </g>
   <g id="line2d_64">
    <defs>
     <path id="m1034955707" d="M -3 3 
L 3 -3 
M -3 -3 
L 3 3 
" style="stroke: #4682b4; stroke-width: 0.9375"/>
    </defs>
    <g clip-path="url(#p6ec46a51cb)">
     <use xlink:href="#m1034955707" x="452.160494" y="312.491364" style="fill: #4682b4; stroke: #4682b4; stroke-width: 0.9375"/>
     <use xlink:href="#m1034955707" x="526.128697" y="319.911818" style="fill: #4682b4; stroke: #4682b4; stroke-width: 0.9375"/>
     <use xlink:href="#m1034955707" x="600.0969" y="291.714091" style="fill: #4682b4; stroke: #4682b4; stroke-width: 0.9375"/>
     <use xlink:href="#m1034955707" x="674.065104" y="371.855" style="fill: #4682b4; stroke: #4682b4; stroke-width: 0.9375"/>
    </g>
   </g>
   <g id="line2d_65">
    <path d="M 448.462084 328.853466 
L 455.858904 328.853466 
M 452.160494 328.853466 
L 452.160494 294.682273 
M 448.462084 294.682273 
L 455.858904 294.682273 
" clip-path="url(#p6ec46a51cb)" style="fill: none; stroke: #4682b4; stroke-width: 1.25; stroke-linecap: square"/>
   </g>
   <g id="line2d_66">
    <path d="M 522.430287 337.758011 
L 529.827107 337.758011 
M 526.128697 337.758011 
L 526.128697 302.102727 
M 522.430287 302.102727 
L 529.827107 302.102727 
" clip-path="url(#p6ec46a51cb)" style="fill: none; stroke: #4682b4; stroke-width: 1.25; stroke-linecap: square"/>
   </g>
   <g id="line2d_67">
    <path d="M 596.39849 308.039091 
L 603.795311 308.039091 
M 600.0969 308.039091 
L 600.0969 278.357273 
M 596.39849 278.357273 
L 603.795311 278.357273 
" clip-path="url(#p6ec46a51cb)" style="fill: none; stroke: #4682b4; stroke-width: 1.25; stroke-linecap: square"/>
   </g>
   <g id="line2d_68">
    <path d="M 670.366693 394.116364 
L 677.763514 394.116364 
M 674.065104 394.116364 
L 674.065104 349.556534 
M 670.366693 349.556534 
L 677.763514 349.556534 
" clip-path="url(#p6ec46a51cb)" style="fill: none; stroke: #4682b4; stroke-width: 1.25; stroke-linecap: square"/>
   </g>
   <g id="line2d_69"/>
   <g id="line2d_70"/>
   <g id="patch_11">
    <path d="M 413.327188 401.24 
L 413.327188 244.52 
" style="fill: none; stroke: #000000; stroke-width: 0.8; stroke-linejoin: miter; stroke-linecap: square"/>
   </g>
   <g id="patch_12">
    <path d="M 709.2 401.24 
L 709.2 244.52 
" style="fill: none; stroke: #000000; stroke-width: 0.8; stroke-linejoin: miter; stroke-linecap: square"/>
   </g>
   <g id="patch_13">
    <path d="M 413.327188 401.24 
L 709.2 401.24 
" style="fill: none; stroke: #000000; stroke-width: 0.8; stroke-linejoin: miter; stroke-linecap: square"/>
   </g>
   <g id="patch_14">
    <path d="M 413.327188 244.52 
L 709.2 244.52 
" style="fill: none; stroke: #000000; stroke-width: 0.8; stroke-linejoin: miter; stroke-linecap: square"/>
   </g>
   <g id="text_68">
    <!-- D -->
    <g transform="translate(556.643594 238.52) scale(0.12 -0.12)">
     <use xlink:href="#DejaVuSans-44"/>
    </g>
   </g>
   <g id="legend_2">
    <g id="patch_15">
     <path d="M 420.327188 396.24 
L 550.700625 396.24 
Q 552.700625 396.24 552.700625 394.24 
L 552.700625 365.88375 
Q 552.700625 363.88375 550.700625 363.88375 
L 420.327188 363.88375 
Q 418.327188 363.88375 418.327188 365.88375 
L 418.327188 394.24 
Q 418.327188 396.24 420.327188 396.24 
z
" style="fill: #ffffff; opacity: 0.8; stroke: #cccccc; stroke-linejoin: miter"/>
    </g>
    <g id="text_69">
     <!-- Depiction -->
     <g transform="translate(461.6975 375.482188) scale(0.1 -0.1)">
      <defs>
       <path id="DejaVuSans-70" d="M 1159 525 
L 1159 -1331 
L 581 -1331 
L 581 3500 
L 1159 3500 
L 1159 2969 
Q 1341 3281 1617 3432 
Q 1894 3584 2278 3584 
Q 2916 3584 3314 3078 
Q 3713 2572 3713 1747 
Q 3713 922 3314 415 
Q 2916 -91 2278 -91 
Q 1894 -91 1617 61 
Q 1341 213 1159 525 
z
M 3116 1747 
Q 3116 2381 2855 2742 
Q 2594 3103 2138 3103 
Q 1681 3103 1420 2742 
Q 1159 2381 1159 1747 
Q 1159 1113 1420 752 
Q 1681 391 2138 391 
Q 2594 391 2855 752 
Q 3116 1113 3116 1747 
z
" transform="scale(0.015625)"/>
      </defs>
      <use xlink:href="#DejaVuSans-44"/>
      <use xlink:href="#DejaVuSans-65" x="77.001953"/>
      <use xlink:href="#DejaVuSans-70" x="138.525391"/>
      <use xlink:href="#DejaVuSans-69" x="202.001953"/>
      <use xlink:href="#DejaVuSans-63" x="229.785156"/>
      <use xlink:href="#DejaVuSans-74" x="284.765625"/>
      <use xlink:href="#DejaVuSans-69" x="323.974609"/>
      <use xlink:href="#DejaVuSans-6f" x="351.757812"/>
      <use xlink:href="#DejaVuSans-6e" x="412.939453"/>
     </g>
    </g>
    <g id="line2d_71">
     <g>
      <use xlink:href="#mfaa5ec2038" x="432.327188" y="386.660313" style="fill: #8fbc8f; stroke: #8fbc8f; stroke-width: 0.9375"/>
     </g>
    </g>
    <g id="text_70">
     <!-- Wing -->
     <g transform="translate(450.327188 390.160313) scale(0.1 -0.1)">
      <use xlink:href="#DejaVuSans-57"/>
      <use xlink:href="#DejaVuSans-69" x="96.626953"/>
      <use xlink:href="#DejaVuSans-6e" x="124.410156"/>
      <use xlink:href="#DejaVuSans-67" x="187.789062"/>
     </g>
    </g>
    <g id="line2d_72">
     <g>
      <use xlink:href="#m1034955707" x="505.45375" y="386.660313" style="fill: #4682b4; stroke: #4682b4; stroke-width: 0.9375"/>
     </g>
    </g>
    <g id="text_71">
     <!-- Body -->
     <g transform="translate(523.45375 390.160313) scale(0.1 -0.1)">
      <use xlink:href="#DejaVuSans-42"/>
      <use xlink:href="#DejaVuSans-6f" x="68.603516"/>
      <use xlink:href="#DejaVuSans-64" x="129.785156"/>
      <use xlink:href="#DejaVuSans-79" x="193.261719"/>
     </g>
    </g>
   </g>
  </g>
 </g>
 <defs>
  <clipPath id="p0196e8b064">
   <rect x="103.154375" y="26.88" width="295.872813" height="156.72"/>
  </clipPath>
  <clipPath id="pd6c4f2523b">
   <rect x="413.327188" y="26.88" width="295.872813" height="156.72"/>
  </clipPath>
  <clipPath id="p4fcfe58aa2">
   <rect x="103.154375" y="244.52" width="295.872813" height="156.72"/>
  </clipPath>
  <clipPath id="p6ec46a51cb">
   <rect x="413.327188" y="244.52" width="295.872813" height="156.72"/>
  </clipPath>
 </defs>
</svg>
